<?xml version="1.0" encoding="UTF-8"?>
<svg version="1.1" xmlns="http://www.w3.org/2000/svg" width="556" height="448">
<path d="M0 0 C-0.58859539 3.74261754 -1.64665531 6.56964507 -3.4765625 9.87890625 C-3.97913574 10.79438232 -4.48170898 11.7098584 -4.99951172 12.65307617 C-5.80412842 14.09324097 -5.80412842 14.09324097 -6.625 15.5625 C-7.17043457 16.55032471 -7.71586914 17.53814941 -8.27783203 18.5559082 C-11.56449938 24.48840621 -14.91303497 30.37830405 -18.37182617 36.2121582 C-22.74505984 43.70023067 -26.75529812 51.40078721 -30.84619141 59.04541016 C-36.67226752 69.92351472 -42.60295453 80.7304307 -48.73657227 91.43847656 C-51.32871482 95.97628606 -53.80493102 100.52971611 -56.10595703 105.22167969 C-57.41332057 107.82212644 -58.88566245 110.31279026 -60.375 112.8125 C-65.60709779 121.70035842 -70.46030371 130.73982306 -75 140 C-75.99 139.67 -76.98 139.34 -78 139 C-80.64 125.8 -83.28 112.6 -86 99 C-90.89863261 106.96027799 -95.61349763 114.78574033 -100 123 C-101.20315246 125.20772636 -102.40764123 127.41472486 -103.61328125 129.62109375 C-104.84669925 131.89304186 -106.0797691 134.16517901 -107.3125 136.4375 C-107.94478516 137.59443359 -108.57707031 138.75136719 -109.22851562 139.94335938 C-110.13053711 141.60915039 -110.13053711 141.60915039 -111.05078125 143.30859375 C-111.59387939 144.30689209 -112.13697754 145.30519043 -112.6965332 146.33374023 C-113.80508872 148.60130621 -114.52695045 150.53597163 -115 153 C-116.32 152.67 -117.64 152.34 -119 152 C-119.14099121 151.23445801 -119.28198242 150.46891602 -119.42724609 149.68017578 C-120.0757189 146.16163987 -120.72535187 142.64331909 -121.375 139.125 C-121.59671875 137.92101562 -121.8184375 136.71703125 -122.046875 135.4765625 C-124.53026817 121.86060371 -124.53026817 121.86060371 -127.625 108.375 C-128.01558594 106.83972656 -128.01558594 106.83972656 -128.4140625 105.2734375 C-128.60742188 104.52320313 -128.80078125 103.77296875 -129 103 C-131.25700492 105.871645 -133.06354194 108.78876639 -134.78515625 112.0078125 C-135.31133545 112.9865332 -135.83751465 113.96525391 -136.37963867 114.97363281 C-136.93498291 116.01358398 -137.49032715 117.05353516 -138.0625 118.125 C-139.22574735 120.28950077 -140.38981864 122.45355894 -141.5546875 124.6171875 C-142.1331543 125.69194336 -142.71162109 126.76669922 -143.30761719 127.87402344 C-146.13516069 133.09673939 -149.02639416 138.28348271 -151.92797852 143.46533203 C-153.6871987 146.61206922 -155.43439054 149.75156968 -157 153 C-157.99 152.67 -158.98 152.34 -160 152 C-160.19634033 151.00258789 -160.39268066 150.00517578 -160.5949707 148.97753906 C-161.33556371 145.21960623 -162.08018592 141.46248056 -162.82592773 137.70556641 C-163.14601009 136.09021855 -163.46504984 134.47466368 -163.78295898 132.85888672 C-165.62376184 123.50702844 -167.55281343 114.21694191 -170 105 C-170.96421875 104.73445313 -171.9284375 104.46890625 -172.921875 104.1953125 C-174.18515625 103.84210938 -175.4484375 103.48890625 -176.75 103.125 C-178.00296875 102.77695313 -179.2559375 102.42890625 -180.546875 102.0703125 C-183.24953641 101.23260975 -185.5469357 100.37520272 -188 99 C-185.45399474 95.98098447 -182.72086962 94.87595624 -179.08203125 93.44140625 C-177.90962891 92.97283203 -176.73722656 92.50425781 -175.52929688 92.02148438 C-174.30275391 91.54001953 -173.07621094 91.05855469 -171.8125 90.5625 C-164.39082926 87.6263238 -157.06648163 84.722443 -150 81 C-152.95377498 78.63019987 -152.95377498 78.63019987 -157 79 C-157 78.34 -157 77.68 -157 77 C-157.66 77 -158.32 77 -159 77 C-157.53061224 73.26530612 -157.53061224 73.26530612 -155.1875 72.09375 C-154.465625 71.8978125 -153.74375 71.701875 -153 71.5 C-148.72774774 70.23541333 -144.65612497 68.71175462 -140.53125 67.03125 C-138.0496488 66.02022729 -135.55693844 65.04133027 -133.0625 64.0625 C-128.42552158 62.22382451 -123.93447751 60.12572381 -119.4453125 57.953125 C-117 57 -117 57 -113 57 C-113 56.34 -113 55.68 -113 55 C-114.051875 54.87625 -115.10375 54.7525 -116.1875 54.625 C-119.45958771 54.08859218 -122.00536076 53.36119965 -125 52 C-121.41325076 48.03569821 -117.1305085 45.89498654 -112.125 44.1875 C-107.57891219 42.58659273 -103.09318513 40.86785044 -98.625 39.0625 C-93.86998221 37.14339673 -89.10474254 35.26256961 -84.3125 33.4375 C-79.30822472 31.5221334 -74.354454 29.51079964 -69.41601562 27.43212891 C-59.07479542 23.09668024 -48.69108739 18.86481439 -38.29296875 14.66796875 C-37.38457245 14.30127075 -36.47617615 13.93457275 -35.54025269 13.5567627 C-31.79801711 12.04661986 -28.05553782 10.53708847 -24.31225586 9.02954102 C-21.53440009 7.91048162 -18.7573753 6.78938113 -15.98046875 5.66796875 C-15.13574509 5.32839645 -14.29102142 4.98882416 -13.42070007 4.63896179 C-12.63500137 4.32135391 -11.84930267 4.00374603 -11.03979492 3.67651367 C-10.01084358 3.2618409 -10.01084358 3.2618409 -8.96110535 2.83879089 C-6.95457581 2.01420282 -6.95457581 2.01420282 -4.93501282 0.8952179 C-3 0 -3 0 0 0 Z " fill="#4FE593" transform="translate(375,94)"/>
<path d="M0 0 C-0.804375 0.268125 -1.60875 0.53625 -2.4375 0.8125 C-3.283125 1.204375 -4.12875 1.59625 -5 2 C-5.33 2.99 -5.66 3.98 -6 5 C-7.65 5 -9.3 5 -11 5 C-11.33 5.99 -11.66 6.98 -12 8 C-13.175625 8.103125 -14.35125 8.20625 -15.5625 8.3125 C-18.57824309 8.67610023 -21.04648055 9.30951683 -23.8125 10.5625 C-27 12 -27 12 -30 12 C-30 12.66 -30 13.32 -30 14 C-28.93072266 14.16435547 -28.93072266 14.16435547 -27.83984375 14.33203125 C-22.10754695 15.28098483 -17.32587868 16.62237559 -12 19 C-10.10129321 19.55885 -8.19420229 20.08970516 -6.28125 20.59765625 C-5.29189453 20.86199463 -4.30253906 21.12633301 -3.28320312 21.39868164 C-2.52974609 21.5971167 -1.77628906 21.79555176 -1 22 C-0.04050546 26.45808423 0.91738274 30.91651218 1.875 35.375 C2.14441406 36.62667969 2.41382813 37.87835938 2.69140625 39.16796875 C3.46623559 42.77753957 4.23411582 46.38852199 5 50 C5.31759277 51.47001465 5.31759277 51.47001465 5.64160156 52.96972656 C5.82432617 53.83823242 6.00705078 54.70673828 6.1953125 55.6015625 C6.35273926 56.33971191 6.51016602 57.07786133 6.67236328 57.83837891 C7.03819572 60.25200069 7.05509542 62.56242906 7 65 C6.34 63.68 5.68 62.36 5 61 C3.78785827 62.93511967 2.58053573 64.87325806 1.375 66.8125 C0.70210938 67.89144531 0.02921875 68.97039062 -0.6640625 70.08203125 C-3.62230467 74.95522713 -6.29180676 79.98517044 -9 85 C-10.20408704 87.20721679 -11.40852588 89.41424168 -12.61328125 91.62109375 C-13.84669925 93.89304186 -15.0797691 96.16517901 -16.3125 98.4375 C-16.94478516 99.59443359 -17.57707031 100.75136719 -18.22851562 101.94335938 C-18.82986328 103.05388672 -19.43121094 104.16441406 -20.05078125 105.30859375 C-20.59387939 106.30689209 -21.13697754 107.30519043 -21.6965332 108.33374023 C-22.80508872 110.60130621 -23.52695045 112.53597163 -24 115 C-25.98 114.505 -25.98 114.505 -28 114 C-28.14099121 113.23445801 -28.28198242 112.46891602 -28.42724609 111.68017578 C-29.0757189 108.16163987 -29.72535187 104.64331909 -30.375 101.125 C-30.59671875 99.92101562 -30.8184375 98.71703125 -31.046875 97.4765625 C-33.53026817 83.86060371 -33.53026817 83.86060371 -36.625 70.375 C-37.01558594 68.83972656 -37.01558594 68.83972656 -37.4140625 67.2734375 C-37.60742188 66.52320313 -37.80078125 65.77296875 -38 65 C-40.25700492 67.871645 -42.06354194 70.78876639 -43.78515625 74.0078125 C-44.31133545 74.9865332 -44.83751465 75.96525391 -45.37963867 76.97363281 C-45.93498291 78.01358398 -46.49032715 79.05353516 -47.0625 80.125 C-48.22574735 82.28950077 -49.38981864 84.45355894 -50.5546875 86.6171875 C-51.1331543 87.69194336 -51.71162109 88.76669922 -52.30761719 89.87402344 C-55.13516069 95.09673939 -58.02639416 100.28348271 -60.92797852 105.46533203 C-62.6871987 108.61206922 -64.43439054 111.75156968 -66 115 C-67.485 114.505 -67.485 114.505 -69 114 C-69.19634033 113.00258789 -69.39268066 112.00517578 -69.5949707 110.97753906 C-70.33556371 107.21960623 -71.08018592 103.46248056 -71.82592773 99.70556641 C-72.14601009 98.09021855 -72.46504984 96.47466368 -72.78295898 94.85888672 C-74.62376184 85.50702844 -76.55281343 76.21694191 -79 67 C-79.96421875 66.73445313 -80.9284375 66.46890625 -81.921875 66.1953125 C-83.18515625 65.84210938 -84.4484375 65.48890625 -85.75 65.125 C-87.00296875 64.77695313 -88.2559375 64.42890625 -89.546875 64.0703125 C-92.24953641 63.23260975 -94.5469357 62.37520272 -97 61 C-94.45399474 57.98098447 -91.72086962 56.87595624 -88.08203125 55.44140625 C-86.90962891 54.97283203 -85.73722656 54.50425781 -84.52929688 54.02148438 C-83.30275391 53.54001953 -82.07621094 53.05855469 -80.8125 52.5625 C-73.39082926 49.6263238 -66.06648163 46.722443 -59 43 C-61.95377498 40.63019987 -61.95377498 40.63019987 -66 41 C-66 40.34 -66 39.68 -66 39 C-66.66 39 -67.32 39 -68 39 C-66.53061224 35.26530612 -66.53061224 35.26530612 -64.1875 34.09375 C-63.465625 33.8978125 -62.74375 33.701875 -62 33.5 C-57.72774774 32.23541333 -53.65612497 30.71175462 -49.53125 29.03125 C-47.0496488 28.02022729 -44.55693844 27.04133027 -42.0625 26.0625 C-37.42552158 24.22382451 -32.93447751 22.12572381 -28.4453125 19.953125 C-26 19 -26 19 -22 19 C-22 18.34 -22 17.68 -22 17 C-23.051875 16.87625 -24.10375 16.7525 -25.1875 16.625 C-28.45958771 16.08859218 -31.00536076 15.36119965 -34 14 C-30.38026946 9.99924519 -26.0445535 7.8629102 -21 6.125 C-15.48254416 4.19576714 -10.06864131 2.05161318 -4.65234375 -0.14453125 C-2 -1 -2 -1 0 0 Z " fill="#5EE69C" transform="translate(284,132)"/>
<path d="M0 0 C2.41450403 0.66186488 2.41450403 0.66186488 5.625 0.94140625 C9.11109072 3.09946241 9.09452639 4.71532872 10.0625 8.62890625 C10.27519531 9.71300781 10.48789063 10.79710937 10.70703125 11.9140625 C10.97820672 14.47825546 10.97820672 14.47825546 12.25 15.56640625 C13.08362231 19.28701208 13.66955367 23.05869165 14.3125 26.81640625 C14.49876953 27.86699219 14.68503906 28.91757813 14.87695312 30 C15.05291016 31.01707031 15.22886719 32.03414062 15.41015625 33.08203125 C15.57136963 34.01305664 15.73258301 34.94408203 15.89868164 35.90332031 C16.24037423 38.49344037 16.31348099 40.95748525 16.25 43.56640625 C13.97829651 41.29470276 13.89996185 40.57934174 13.46875 37.50390625 C13.34886719 36.70726562 13.22898438 35.910625 13.10546875 35.08984375 C12.86848958 33.40755208 12.63151042 31.72526042 12.39453125 30.04296875 C12.27464844 29.24632812 12.15476563 28.4496875 12.03125 27.62890625 C11.92876953 26.89800781 11.82628906 26.16710937 11.72070312 25.4140625 C11.35832693 23.33429591 11.35832693 23.33429591 9.25 21.56640625 C8.96390869 22.11876953 8.67781738 22.67113281 8.38305664 23.24023438 C2.21053726 35.13918569 -4.112605 46.92091643 -10.75 58.56640625 C-11.73221339 60.31469805 -12.71194552 62.06439004 -13.6875 63.81640625 C-14.04714844 64.4609375 -14.40679687 65.10546875 -14.77734375 65.76953125 C-15.81221986 67.68135058 -16.78820361 69.61693553 -17.75 71.56640625 C-19.235 71.07140625 -19.235 71.07140625 -20.75 70.56640625 C-20.94634033 69.56899414 -21.14268066 68.57158203 -21.3449707 67.54394531 C-22.08556371 63.78601248 -22.83018592 60.02888681 -23.57592773 56.27197266 C-23.89601009 54.6566248 -24.21504984 53.04106993 -24.53295898 51.42529297 C-26.37376184 42.07343469 -28.30281343 32.78334816 -30.75 23.56640625 C-31.71421875 23.30085938 -32.6784375 23.0353125 -33.671875 22.76171875 C-34.93515625 22.40851563 -36.1984375 22.0553125 -37.5 21.69140625 C-38.75296875 21.34335938 -40.0059375 20.9953125 -41.296875 20.63671875 C-43.99953641 19.799016 -46.2969357 18.94160897 -48.75 17.56640625 C-46.20399474 14.54739072 -43.47086962 13.44236249 -39.83203125 12.0078125 C-38.65962891 11.53923828 -37.48722656 11.07066406 -36.27929688 10.58789062 C-35.05275391 10.10642578 -33.82621094 9.62496094 -32.5625 9.12890625 C-23.21791656 5.50333427 -23.21791656 5.50333427 -14.13671875 1.28125 C-8.68967164 -1.47682807 -5.7987744 -1.51645581 0 0 Z " fill="#87EDB6" transform="translate(235.75,175.43359375)"/>
<path d="M0 0 C-1.33250791 3.5875213 -2.830717 6.8364623 -5 10 C-5.66 10 -6.32 10 -7 10 C-7.10699219 10.73992187 -7.21398437 11.47984375 -7.32421875 12.2421875 C-8.04487805 15.18314396 -9.00901153 16.72339257 -10.8125 19.125 C-13.05059557 22.34259151 -14.55330085 25.20998254 -15.75 28.9375 C-18.372994 36.81764368 -22.77373088 43.81752764 -26.87939453 50.99462891 C-28.34562457 53.61850986 -29.68876323 56.29584285 -31 59 C-31.66 59 -32.32 59 -33 59 C-33.81736749 55.0009789 -34.62800952 51.00062238 -35.4375 47 C-35.66759766 45.87464844 -35.89769531 44.74929687 -36.13476562 43.58984375 C-37.31596799 37.73518856 -38.36670827 31.93983965 -39 26 C-39.73605469 25.87882812 -40.47210938 25.75765625 -41.23046875 25.6328125 C-42.20628906 25.46523437 -43.18210937 25.29765625 -44.1875 25.125 C-45.15042969 24.96257812 -46.11335938 24.80015625 -47.10546875 24.6328125 C-49.91032604 24.01960483 -52.37224747 23.14333657 -55 22 C-52.6201488 19.26282848 -50.35855772 18.13743018 -46.9921875 16.84375 C-46.00476563 16.46089844 -45.01734375 16.07804687 -44 15.68359375 C-42.96875 15.29300781 -41.9375 14.90242187 -40.875 14.5 C-39.86695313 14.10941406 -38.85890625 13.71882812 -37.8203125 13.31640625 C-32.59004841 11.30424507 -27.34127446 9.41037737 -22.01464844 7.67041016 C-19.03810785 6.67991325 -16.11395046 5.5663243 -13.1875 4.4375 C-12.10855469 4.02371094 -11.02960938 3.60992187 -9.91796875 3.18359375 C-7.08140285 2.08803832 -7.08140285 2.08803832 -4.80078125 0.84765625 C-3 0 -3 0 0 0 Z " fill="#219656" transform="translate(322,128)"/>
<path d="M0 0 C0.97453125 0.01804687 1.9490625 0.03609375 2.953125 0.0546875 C5.34477807 0.10158266 7.73436597 0.16719093 10.125 0.25 C9.67318719 3.73004512 9.2123396 7.20883904 8.75 10.6875 C8.56050781 12.14833008 8.56050781 12.14833008 8.3671875 13.63867188 C6.1480152 30.2269848 6.1480152 30.2269848 4.125 32.25 C2.44316052 32.48287008 0.7537584 32.66264166 -0.9375 32.8125 C-1.85660156 32.89628906 -2.77570313 32.98007812 -3.72265625 33.06640625 C-4.43292969 33.12699219 -5.14320313 33.18757813 -5.875 33.25 C-5.875 30.28 -5.875 27.31 -5.875 24.25 C-7.195 24.25 -8.515 24.25 -9.875 24.25 C-9.854375 25.19875 -9.83375 26.1475 -9.8125 27.125 C-9.875 30.25 -9.875 30.25 -10.875 32.25 C-14.175 32.25 -17.475 32.25 -20.875 32.25 C-21.09207683 26.19689622 -20.30404001 20.51741107 -19.25 14.5625 C-19.10949219 13.62599609 -18.96898437 12.68949219 -18.82421875 11.72460938 C-18.04877219 7.37900687 -17.47563998 4.88960555 -14.40625 1.62109375 C-9.51208451 -0.27918511 -5.19634746 -0.18306915 0 0 Z M-6.875 8.25 C-7.205 11.22 -7.535 14.19 -7.875 17.25 C-6.225 17.25 -4.575 17.25 -2.875 17.25 C-2.545 14.28 -2.215 11.31 -1.875 8.25 C-3.525 8.25 -5.175 8.25 -6.875 8.25 Z " fill="#1E864E" transform="translate(202.875,275.75)"/>
<path d="M0 0 C3.93736123 -0.08696177 7.87447628 -0.14037835 11.8125 -0.1875 C13.49182617 -0.22520508 13.49182617 -0.22520508 15.20507812 -0.26367188 C16.27822266 -0.27333984 17.35136719 -0.28300781 18.45703125 -0.29296875 C19.9416687 -0.31653442 19.9416687 -0.31653442 21.45629883 -0.34057617 C24 0 24 0 25.82958984 1.31958008 C28.36970514 4.96655829 27.08170303 9.82958299 26.44921875 14.0078125 C26.20196884 15.38142314 25.94799459 16.75383944 25.6875 18.125 C25.56955078 18.81464844 25.45160156 19.50429688 25.33007812 20.21484375 C24.48867271 24.72822872 23.31769465 28.68230535 20 32 C18.36527118 32.08700342 16.72685945 32.10701063 15.08984375 32.09765625 C14.10048828 32.09443359 13.11113281 32.09121094 12.09179688 32.08789062 C11.05087891 32.07951172 10.00996094 32.07113281 8.9375 32.0625 C7.89271484 32.05798828 6.84792969 32.05347656 5.77148438 32.04882812 C3.1809334 32.03699913 0.59049441 32.02051689 -2 32 C-2.95313957 28.22917884 -2.94964685 25.40274674 -2.2578125 21.5859375 C-2.07863281 20.57789063 -1.89945312 19.56984375 -1.71484375 18.53125 C-1.52019531 17.4896875 -1.32554687 16.448125 -1.125 15.375 C-0.93808594 14.32570313 -0.75117188 13.27640625 -0.55859375 12.1953125 C0.83147321 4.50558036 0.83147321 4.50558036 2 1 C1.34 0.67 0.68 0.34 0 0 Z M11 8 C10.86722656 8.80824219 10.73445313 9.61648438 10.59765625 10.44921875 C10.42105469 11.51785156 10.24445313 12.58648437 10.0625 13.6875 C9.88847656 14.74324219 9.71445312 15.79898437 9.53515625 16.88671875 C9.06832879 19.60249604 8.55577384 22.30124235 8 25 C9.65 25 11.3 25 13 25 C13.33 24.01 13.66 23.02 14 22 C13.34 22 12.68 22 12 22 C12 21.34 12 20.68 12 20 C12.66 20 13.32 20 14 20 C14.96070434 17.11788698 15.10581883 15.30149956 15.0625 12.3125 C15.05347656 11.50425781 15.04445313 10.69601562 15.03515625 9.86328125 C15.02355469 9.24839844 15.01195312 8.63351562 15 8 C13.68 8 12.36 8 11 8 Z " fill="#3E9264" transform="translate(384,276)"/>
<path d="M0 0 C6.93 0 13.86 0 21 0 C22 9 22 9 21 11 C18.69 11 16.38 11 14 11 C14.33 11.99 14.66 12.98 15 14 C15.66 14.268125 16.32 14.53625 17 14.8125 C19 16 19 16 19.9375 18.5625 C20.01831153 23.00713433 19.32424133 27.15191833 17 31 C12.65742447 33.68554013 8.25890053 33.07504501 3.375 32.6875 C2.611875 32.63916016 1.84875 32.59082031 1.0625 32.54101562 C-2.14056152 32.31904908 -4.94234757 32.01921748 -8 31 C-8.33 27.37 -8.66 23.74 -9 20 C-6.27157939 18.63578969 -4.39046682 19.12192789 -1.375 19.4375 C-0.37210938 19.53933594 0.63078125 19.64117187 1.6640625 19.74609375 C2.43492187 19.82988281 3.20578125 19.91367187 4 20 C4 21.32 4 22.64 4 24 C5.32 24.33 6.64 24.66 8 25 C8 24.01 8 23.02 8 22 C7.34 21.67 6.68 21.34 6 21 C6 20.34 6 19.68 6 19 C5.278125 18.896875 4.55625 18.79375 3.8125 18.6875 C0.64392411 17.91295923 -1.42236744 17.00482532 -4 15 C-5.78108697 10.72539127 -4.61699582 7.20418913 -3 3 C-2.01 2.67 -1.02 2.34 0 2 C0 1.34 0 0.68 0 0 Z M6 8 C6 8.99 6 9.98 6 11 C7.98 11.66 9.96 12.32 12 13 C11.67 11.35 11.34 9.7 11 8 C9.35 8 7.7 8 6 8 Z " fill="#198449" transform="translate(226,276)"/>
<path d="M0 0 C2.24658203 -0.34057617 2.24658203 -0.34057617 5.0078125 -0.29296875 C5.99394531 -0.28330078 6.98007812 -0.27363281 7.99609375 -0.26367188 C9.02863281 -0.23853516 10.06117188 -0.21339844 11.125 -0.1875 C12.68541016 -0.16719727 12.68541016 -0.16719727 14.27734375 -0.14648438 C16.85207627 -0.11105228 19.4257833 -0.06165221 22 0 C24.27406467 4.02524244 23.93901423 6.42303592 23.1875 11 C22.89939453 12.8253125 22.89939453 12.8253125 22.60546875 14.6875 C22.40566406 15.780625 22.20585937 16.87375 22 18 C21.87238281 18.763125 21.74476563 19.52625 21.61328125 20.3125 C21 22 21 22 18 24 C15.08203125 24.4140625 15.08203125 24.4140625 11.8125 24.625 C10.72582031 24.69976562 9.63914062 24.77453125 8.51953125 24.8515625 C7.27236328 24.92503906 7.27236328 24.92503906 6 25 C5.01 27.31 4.02 29.62 3 32 C0.03 32 -2.94 32 -6 32 C-6.2624981 25.73504538 -5.2687969 19.89892234 -4.125 13.75 C-3.95097656 12.75742187 -3.77695312 11.76484375 -3.59765625 10.7421875 C-3.42363281 9.79085938 -3.24960937 8.83953125 -3.0703125 7.859375 C-2.91320801 6.99795898 -2.75610352 6.13654297 -2.59423828 5.24902344 C-2 3 -2 3 0 0 Z M8 8 C7.34 10.97 6.68 13.94 6 17 C7.65 17 9.3 17 11 17 C11.66 14.03 12.32 11.06 13 8 C11.35 8 9.7 8 8 8 Z " fill="#4A9D70" transform="translate(314,276)"/>
<path d="M0 0 C0.9583374 0.00523682 1.9166748 0.01047363 2.90405273 0.01586914 C4.45576172 0.02070313 4.45576172 0.02070313 6.03881836 0.02563477 C7.12743164 0.03401367 8.21604492 0.04239258 9.33764648 0.05102539 C10.97636719 0.05779297 10.97636719 0.05779297 12.64819336 0.06469727 C15.35723144 0.07652713 18.06616248 0.09300996 20.77514648 0.11352539 C20.11514648 3.08352539 19.45514648 6.05352539 18.77514648 9.11352539 C15.80514648 8.61852539 15.80514648 8.61852539 12.77514648 8.11352539 C12.72616211 9.01973633 12.67717773 9.92594727 12.62670898 10.85961914 C11.48878797 29.3998839 11.48878797 29.3998839 8.77514648 32.11352539 C7.25586611 32.18532503 5.73347167 32.19744546 4.21264648 32.17602539 C3.38635742 32.16700195 2.56006836 32.15797852 1.70874023 32.14868164 C1.0706543 32.13708008 0.43256836 32.12547852 -0.22485352 32.11352539 C-2.73771617 24.57493742 0.78282893 15.51893214 2.77514648 8.11352539 C0.60640397 8.61956531 -1.22452978 9.11336352 -3.22485352 10.11352539 C-3.25174568 8.63445647 -3.27119973 7.15525056 -3.28735352 5.67602539 C-3.29895508 4.85231445 -3.31055664 4.02860352 -3.32250977 3.17993164 C-3.1852797 0.27614339 -2.90334423 0.14814606 0 0 Z " fill="#248851" transform="translate(261.224853515625,275.886474609375)"/>
<path d="M0 0 C3.3 0 6.6 0 10 0 C9.57434944 3.50180605 9.13489617 7.00096127 8.6875 10.5 C8.56955078 11.48226563 8.45160156 12.46453125 8.33007812 13.4765625 C6.5080819 27.4919181 6.5080819 27.4919181 2 32 C-4.38033566 33.11341214 -10.6574121 33.29734753 -17 32 C-17 30.02 -17 28.04 -17 26 C-12.58774263 24.52924754 -9.51718381 23.63115642 -5 25 C-4.8453125 23.205625 -4.8453125 23.205625 -4.6875 21.375 C-2.99424847 5.98849693 -2.99424847 5.98849693 0 0 Z " fill="#61A782" transform="translate(167,276)"/>
<path d="M0 0 C0.99 0.33 1.98 0.66 3 1 C2.34 1.99 1.68 2.98 1 4 C1 5.32 1 6.64 1 8 C1.33 7.34 1.66 6.68 2 6 C4.22764559 5.39060481 6.48454396 4.8863611 8.75 4.4375 C9.98234375 4.18871094 11.2146875 3.93992188 12.484375 3.68359375 C13.64453125 3.45800781 14.8046875 3.23242188 16 3 C17.66675141 2.66709066 19.33345577 2.33394493 21 2 C18.0724592 4.40208476 15.38370917 5.7632176 11.8125 7 C10.93207031 7.309375 10.05164063 7.61875 9.14453125 7.9375 C7.46107386 8.50632039 5.77615409 9.07129886 4.08300781 9.6105957 C-3.87668395 12.17580872 -11.55918543 15.41228794 -19.2890625 18.59179688 C-20.90554688 19.24825195 -20.90554688 19.24825195 -22.5546875 19.91796875 C-23.52905762 20.31781982 -24.50342773 20.7176709 -25.50732422 21.12963867 C-29.64135958 22.57310939 -32.59033904 21.65684545 -36.6875 20.5 C-37.68136719 20.2215625 -38.67523438 19.943125 -39.69921875 19.65625 C-40.45847656 19.4396875 -41.21773437 19.223125 -42 19 C-42 18.34 -42 17.68 -42 17 C-39.75267898 16.15875684 -37.50261215 15.32685168 -35.25 14.5 C-34.61578125 14.26152344 -33.9815625 14.02304688 -33.328125 13.77734375 C-29.96713393 12.55198242 -27.63128413 12 -24 12 C-23.67 11.34 -23.34 10.68 -23 10 C-21.35 10 -19.7 10 -18 10 C-17.9071875 9.071875 -17.9071875 9.071875 -17.8125 8.125 C-17 6 -17 6 -15 4.875 C-11.72135214 3.91872771 -8.43936407 3.20342795 -5.0859375 2.5625 C-2.71940056 2.04327522 -2.71940056 2.04327522 0 0 Z " fill="#3ADF84" transform="translate(296,127)"/>
<path d="M0 0 C-1.32 7.59 -2.64 15.18 -4 23 C2.4 22.8 2.4 22.8 4 21 C4.10546754 19.41798689 4.18438364 17.83416646 4.25 16.25 C4.68505073 11.14540471 6.1749216 9.44257056 10 6 C10.87989974 2.81849108 10.87989974 2.81849108 11 0 C11.66 0 12.32 0 13 0 C12.56891497 8.50825713 12.01290353 16.69433011 10 25 C2.57359158 26.60881575 -4.40501039 27.26442904 -12 27 C-11.68978487 23.95808469 -11.37690547 20.91648266 -11.0625 17.875 C-10.97548828 17.0190625 -10.88847656 16.163125 -10.79882812 15.28125 C-9.79498413 5.61460408 -9.79498413 5.61460408 -9 2 C-5.89429009 -0.44020064 -4.17414371 0 0 0 Z " fill="#228750" transform="translate(395,280)"/>
<path d="M0 0 C1.21236328 0.02707031 1.21236328 0.02707031 2.44921875 0.0546875 C3.37154297 0.08949219 3.37154297 0.08949219 4.3125 0.125 C3.48125478 4.52251867 2.64497688 8.9190405 1.80395508 13.31469727 C1.51837747 14.81117596 1.23419368 16.30792133 0.95141602 17.80493164 C0.54546626 19.95269735 0.13456571 22.09946414 -0.27734375 24.24609375 C-0.52347412 25.5395874 -0.76960449 26.83308105 -1.02319336 28.16577148 C-1.6875 31.125 -1.6875 31.125 -2.6875 32.125 C-4.54037502 32.19726502 -6.39583878 32.2088122 -8.25 32.1875 C-9.26191406 32.17847656 -10.27382813 32.16945313 -11.31640625 32.16015625 C-12.09886719 32.14855469 -12.88132812 32.13695312 -13.6875 32.125 C-13.55214844 31.62226563 -13.41679687 31.11953125 -13.27734375 30.6015625 C-12.4806822 27.25663917 -11.87226396 23.880599 -11.25 20.5 C-10.9805279 19.0676972 -10.71099667 17.63540553 -10.44140625 16.203125 C-9.98804928 13.77847982 -9.55888242 11.35517213 -9.15234375 8.921875 C-8.99894531 8.04015625 -8.84554688 7.1584375 -8.6875 6.25 C-8.501875 5.10917969 -8.501875 5.10917969 -8.3125 3.9453125 C-6.91792871 -0.11637639 -3.69251397 -0.10702939 0 0 Z " fill="#1E864E" transform="translate(372.6875,275.875)"/>
<path d="M0 0 C-0.42407808 3.29353673 -0.86679548 6.58432587 -1.3125 9.875 C-1.43044922 10.7928125 -1.54839844 11.710625 -1.66992188 12.65625 C-2.54389227 19.02054726 -4.01970161 24.88714616 -6 31 C-9.3 31 -12.6 31 -16 31 C-14.89197701 20.03640409 -12.91117506 9.62720217 -10 -1 C-5.78984129 -1.95685425 -3.74287627 -2.13181214 0 0 Z " fill="#1F864F" transform="translate(303,277)"/>
<path d="M0 0 C0.97453125 0.01804687 1.9490625 0.03609375 2.953125 0.0546875 C5.34477807 0.10158266 7.73436597 0.16719093 10.125 0.25 C9.67318719 3.73004512 9.2123396 7.20883904 8.75 10.6875 C8.56050781 12.14833008 8.56050781 12.14833008 8.3671875 13.63867188 C6.1480152 30.2269848 6.1480152 30.2269848 4.125 32.25 C2.44316052 32.48287008 0.7537584 32.66264166 -0.9375 32.8125 C-1.85660156 32.89628906 -2.77570313 32.98007812 -3.72265625 33.06640625 C-4.43292969 33.12699219 -5.14320313 33.18757813 -5.875 33.25 C-5.875 30.28 -5.875 27.31 -5.875 24.25 C-7.195 24.25 -8.515 24.25 -9.875 24.25 C-9.854375 25.19875 -9.83375 26.1475 -9.8125 27.125 C-9.875 30.25 -9.875 30.25 -10.875 32.25 C-14.175 32.25 -17.475 32.25 -20.875 32.25 C-21.09207683 26.19689622 -20.30404001 20.51741107 -19.25 14.5625 C-19.10949219 13.62599609 -18.96898437 12.68949219 -18.82421875 11.72460938 C-18.04877219 7.37900687 -17.47563998 4.88960555 -14.40625 1.62109375 C-9.51208451 -0.27918511 -5.19634746 -0.18306915 0 0 Z M-14.875 4.25 C-16.46762164 9.49628305 -17.18317797 14.48839418 -17.53125 19.953125 C-17.89923591 22.41193992 -18.73495887 24.06112102 -19.875 26.25 C-20.04250414 28.91709069 -20.04250414 28.91709069 -19.875 31.25 C-17.235 31.25 -14.595 31.25 -11.875 31.25 C-11.75382813 30.53972656 -11.63265625 29.82945312 -11.5078125 29.09765625 C-11.25644531 27.71900391 -11.25644531 27.71900391 -11 26.3125 C-10.83757812 25.39597656 -10.67515625 24.47945313 -10.5078125 23.53515625 C-10.29898438 22.78105469 -10.09015625 22.02695312 -9.875 21.25 C-9.215 20.92 -8.555 20.59 -7.875 20.25 C-8.060625 19.59 -8.24625 18.93 -8.4375 18.25 C-9.00527308 14.35669886 -8.46781707 11.13624521 -7.875 7.25 C-5.235 7.25 -2.595 7.25 0.125 7.25 C-0.01533111 9.22956441 -0.1624123 11.20865141 -0.3125 13.1875 C-0.39371094 14.28964844 -0.47492188 15.39179688 -0.55859375 16.52734375 C-0.875 19.25 -0.875 19.25 -1.875 20.25 C-1.94705511 21.93608966 -1.95886068 23.62500659 -1.9375 25.3125 C-1.92847656 26.23160156 -1.91945312 27.15070313 -1.91015625 28.09765625 C-1.89855469 28.80792969 -1.88695312 29.51820313 -1.875 30.25 C-0.225 30.25 1.425 30.25 3.125 30.25 C3.125 27.61 3.125 24.97 3.125 22.25 C3.785 22.25 4.445 22.25 5.125 22.25 C5.08375 20.97125 5.0425 19.6925 5 18.375 C4.9296875 16.1953125 4.9296875 16.1953125 5.125 14.25 C5.785 13.59 6.445 12.93 7.125 12.25 C7.58662427 9.81747339 7.58662427 9.81747339 7.75 7.125 C7.82476562 6.21492188 7.89953125 5.30484375 7.9765625 4.3671875 C8.02554688 3.66851562 8.07453125 2.96984375 8.125 2.25 C4.66673658 2.19210994 1.20859707 2.15644179 -2.25 2.125 C-3.23484375 2.10824219 -4.2196875 2.09148437 -5.234375 2.07421875 C-6.17539063 2.06777344 -7.11640625 2.06132812 -8.0859375 2.0546875 C-8.95524902 2.04421387 -9.82456055 2.03374023 -10.72021484 2.02294922 C-13.08845939 2.04404891 -13.08845939 2.04404891 -14.875 4.25 Z M-6.875 8.25 C-7.205 11.22 -7.535 14.19 -7.875 17.25 C-6.225 17.25 -4.575 17.25 -2.875 17.25 C-2.545 14.28 -2.215 11.31 -1.875 8.25 C-3.525 8.25 -5.175 8.25 -6.875 8.25 Z " fill="#6AAE8A" transform="translate(202.875,275.75)"/>
<path d="M0 0 C-0.58859539 3.74261754 -1.64665531 6.56964507 -3.4765625 9.87890625 C-3.97913574 10.79438232 -4.48170898 11.7098584 -4.99951172 12.65307617 C-5.53592285 13.61318604 -6.07233398 14.5732959 -6.625 15.5625 C-7.44315186 17.04423706 -7.44315186 17.04423706 -8.27783203 18.5559082 C-11.59432518 24.54224235 -14.97665163 30.48316258 -18.46484375 36.37109375 C-21.08335387 40.85520905 -23.54212794 45.42637726 -26 50 C-27 47 -27 47 -25.77734375 44.46875 C-25.17019531 43.4890625 -24.56304687 42.509375 -23.9375 41.5 C-20.45158481 35.74789342 -17.1665797 29.93298724 -14 24 C-13.51015625 23.12085937 -13.0203125 22.24171875 -12.515625 21.3359375 C-9.78679443 16.26153909 -8.37205283 12.77711395 -9 7 C-9.86625 7.45375 -10.7325 7.9075 -11.625 8.375 C-18.55359108 11.7109883 -25.44948479 12.85153976 -33 14 C-33.33 14.99 -33.66 15.98 -34 17 C-35.64453125 17.84375 -35.64453125 17.84375 -37.8125 18.5 C-38.61429687 18.74878906 -39.41609375 18.99757813 -40.2421875 19.25390625 C-44.29061695 20.34916124 -48.38648135 21.22407476 -52.49609375 22.05859375 C-55.14797567 22.77114152 -55.14797567 22.77114152 -56.34765625 25.09765625 C-56.56292969 25.72542969 -56.77820313 26.35320312 -57 27 C-59.31 26.67 -61.62 26.34 -64 26 C-61.34769552 24.23179701 -59.08400481 23.11716475 -56.15625 21.91796875 C-55.08632813 21.47888184 -54.01640625 21.03979492 -52.9140625 20.58740234 C-51.60963459 20.05762861 -50.30492153 19.5285567 -49 19 C-47.84419434 18.53137543 -47.84419434 18.53137543 -46.66503906 18.05328369 C-39.30925064 15.07311184 -31.94895682 12.1040888 -24.58691406 9.1394043 C-21.77610268 8.00715327 -18.96612101 6.87286356 -16.15625 5.73828125 C-15.29584106 5.39243484 -14.43543213 5.04658844 -13.5489502 4.69026184 C-12.74711304 4.36619858 -11.94527588 4.04213531 -11.11914062 3.70825195 C-10.41809204 3.42577103 -9.71704346 3.1432901 -8.99475098 2.85224915 C-6.95906833 2.01676518 -6.95906833 2.01676518 -4.93005371 0.89323425 C-3 0 -3 0 0 0 Z " fill="#ACEFCC" transform="translate(375,94)"/>
<path d="M0 0 C0.33 0 0.66 0 1 0 C1.16918268 1.58306647 1.33523936 3.16646719 1.5 4.75 C1.5928125 5.63171875 1.685625 6.5134375 1.78125 7.421875 C2.13408161 11.58024755 2.1858013 14.02465968 -0.0625 17.5 C-2.96619208 22.87947165 -1.89581586 28.15772267 -1 34 C0.98 33.505 0.98 33.505 3 33 C2.1875 34.9375 2.1875 34.9375 1 37 C-0.485 37.495 -0.485 37.495 -2 38 C-2.27263672 36.64068359 -2.27263672 36.64068359 -2.55078125 35.25390625 C-3.84688051 28.97280982 -5.17145033 22.87115144 -7.44921875 16.8671875 C-8 15 -8 15 -8 11 C-8.86625 10.87625 -9.7325 10.7525 -10.625 10.625 C-13.89513853 10.01941879 -16.87256899 9.11693965 -20 8 C-20 7.34 -20 6.68 -20 6 C-19.030625 5.87625 -18.06125 5.7525 -17.0625 5.625 C-16.051875 5.41875 -15.04125 5.2125 -14 5 C-13.67 4.34 -13.34 3.68 -13 3 C-10.93359375 2.3671875 -10.93359375 2.3671875 -8.4375 1.875 C-7.61121094 1.70742187 -6.78492188 1.53984375 -5.93359375 1.3671875 C-5.29550781 1.24601563 -4.65742188 1.12484375 -4 1 C-2.875 7.625 -2.875 7.625 -4 11 C-0.82990528 9.37921338 -0.82990528 9.37921338 -0.48828125 6.8359375 C-0.43027344 6.02382812 -0.37226563 5.21171875 -0.3125 4.375 C-0.24675781 3.55773437 -0.18101562 2.74046875 -0.11328125 1.8984375 C-0.07589844 1.27195313 -0.03851563 0.64546875 0 0 Z " fill="#2EDF7F" transform="translate(252,167)"/>
<path d="M0 0 C6.93 0 13.86 0 21 0 C20.34 6.27 19.68 12.54 19 19 C15.37 19 11.74 19 8 19 C8 18.34 8 17.68 8 17 C9.65 16.67 11.3 16.34 13 16 C13.33 12.04 13.66 8.08 14 4 C11.03 4 8.06 4 5 4 C4.67 7.63 4.34 11.26 4 15 C3.34 14.67 2.68 14.34 2 14 C2 13.01 2 12.02 2 11 C1.01 11 0.02 11 -1 11 C-1.125 3.375 -1.125 3.375 0 0 Z " fill="#148346" transform="translate(314,279)"/>
<path d="M0 0 C0.84755859 0.00966797 1.69511719 0.01933594 2.56835938 0.02929688 C3.44943359 0.05443359 4.33050781 0.07957031 5.23828125 0.10546875 C6.13095703 0.11900391 7.02363281 0.13253906 7.94335938 0.14648438 C10.14644291 0.18182796 12.34830707 0.23116382 14.55078125 0.29296875 C14.43568464 1.71047438 14.30824467 3.12698044 14.17578125 4.54296875 C14.10617188 5.331875 14.0365625 6.12078125 13.96484375 6.93359375 C13.53369981 9.39030073 12.67260033 11.08551831 11.55078125 13.29296875 C11.38353388 16.45992831 11.38353388 16.45992831 11.55078125 19.29296875 C10.89078125 19.29296875 10.23078125 19.29296875 9.55078125 19.29296875 C9.55078125 21.93296875 9.55078125 24.57296875 9.55078125 27.29296875 C7.90078125 27.29296875 6.25078125 27.29296875 4.55078125 27.29296875 C4.52389974 25.64722309 4.50444002 24.00135462 4.48828125 22.35546875 C4.47667969 21.43894531 4.46507812 20.52242188 4.453125 19.578125 C4.55078125 17.29296875 4.55078125 17.29296875 5.55078125 16.29296875 C5.62322178 14.27332676 5.63455313 12.25129751 5.61328125 10.23046875 C5.60425781 9.12574219 5.59523437 8.02101563 5.5859375 6.8828125 C5.57433594 6.02816406 5.56273437 5.17351562 5.55078125 4.29296875 C2.91078125 3.30296875 0.27078125 2.31296875 -2.44921875 1.29296875 C-2.44921875 2.94296875 -2.44921875 4.59296875 -2.44921875 6.29296875 C-3.76921875 6.29296875 -5.08921875 6.29296875 -6.44921875 6.29296875 C-6.77921875 5.30296875 -7.10921875 4.31296875 -7.44921875 3.29296875 C-5.08036651 0.42052834 -3.69085058 -0.07431243 0 0 Z " fill="#168448" transform="translate(196.44921875,278.70703125)"/>
<path d="M0 0 C2.31 0 4.62 0 7 0 C7.02686553 1.97909398 7.04633375 3.95828971 7.0625 5.9375 C7.07410156 7.03964844 7.08570313 8.14179688 7.09765625 9.27734375 C7 12 7 12 6 13 C4.33382885 13.04063832 2.66611905 13.042721 1 13 C1 13.66 1 14.32 1 15 C4.63 15 8.26 15 12 15 C11.67 15.66 11.34 16.32 11 17 C8.27734375 17.4140625 8.27734375 17.4140625 4.9375 17.625 C3.83277344 17.69976562 2.72804688 17.77453125 1.58984375 17.8515625 C0.73519531 17.90054687 -0.11945313 17.94953125 -1 18 C-1.99 20.31 -2.98 22.62 -4 25 C-6.97 25 -9.94 25 -13 25 C-13.08159574 20.83861737 -12.98248524 17.0527516 -12 13 C-11.67 13 -11.34 13 -11 13 C-10.67 15.31 -10.34 17.62 -10 20 C-9.01 18.02 -8.02 16.04 -7 14 C-6.01 14 -5.02 14 -4 14 C-4 13.34 -4 12.68 -4 12 C-3.34 12 -2.68 12 -2 12 C-1.93941406 11.30132812 -1.87882812 10.60265625 -1.81640625 9.8828125 C-1.73261719 8.97273438 -1.64882813 8.06265625 -1.5625 7.125 C-1.48128906 6.22007812 -1.40007812 5.31515625 -1.31640625 4.3828125 C-1 2 -1 2 0 0 Z M1 1 C0.34 3.97 -0.32 6.94 -1 10 C0.65 10 2.3 10 4 10 C4.66 7.03 5.32 4.06 6 1 C4.35 1 2.7 1 1 1 Z " fill="#74B692" transform="translate(321,283)"/>
<path d="M0 0 C2.64 0 5.28 0 8 0 C7.85904936 1.6254308 7.71207913 3.25034051 7.5625 4.875 C7.48128906 5.77992188 7.40007812 6.68484375 7.31640625 7.6171875 C7 10 7 10 6 12 C5.34 12 4.68 12 4 12 C3.93941406 12.91523438 3.87882813 13.83046875 3.81640625 14.7734375 C3.73261719 15.96195312 3.64882812 17.15046875 3.5625 18.375 C3.48128906 19.55835938 3.40007812 20.74171875 3.31640625 21.9609375 C3 25 3 25 2 27 C-0.31 27 -2.62 27 -5 27 C-4.34 26.67 -3.68 26.34 -3 26 C-3.061875 24.865625 -3.12375 23.73125 -3.1875 22.5625 C-3.2242247 14.94824534 -1.43623378 7.44618822 0 0 Z " fill="#208750" transform="translate(167,278)"/>
<path d="M0 0 C0.66 0 1.32 0 2 0 C1.56891497 8.50825713 1.01290353 16.69433011 -1 25 C-7.02656421 26.68743798 -12.9254627 26.21490746 -19 25 C-18.505 23.515 -18.505 23.515 -18 22 C-17.28972656 22.01160156 -16.57945312 22.02320313 -15.84765625 22.03515625 C-14.92855469 22.04417969 -14.00945312 22.05320312 -13.0625 22.0625 C-11.68771484 22.07990234 -11.68771484 22.07990234 -10.28515625 22.09765625 C-8.03406673 22.25949049 -8.03406673 22.25949049 -7 21 C-6.89453246 19.41798689 -6.81561636 17.83416646 -6.75 16.25 C-6.31494927 11.14540471 -4.8250784 9.44257056 -1 6 C-0.12010026 2.81849108 -0.12010026 2.81849108 0 0 Z " fill="#158348" transform="translate(406,280)"/>
<path d="M0 0 C0.87454834 0.00523682 1.74909668 0.01047363 2.65014648 0.01586914 C3.59438477 0.0190918 4.53862305 0.02231445 5.51147461 0.02563477 C6.50469727 0.03401367 7.49791992 0.04239258 8.52124023 0.05102539 C9.51833008 0.05553711 10.51541992 0.06004883 11.54272461 0.06469727 C14.01478872 0.07652532 16.48673541 0.0930069 18.95874023 0.11352539 C19.89297668 3.12384283 20.00323934 3.98002807 18.95874023 7.11352539 C16.31874023 7.11352539 13.67874023 7.11352539 10.95874023 7.11352539 C10.29874023 5.46352539 9.63874023 3.81352539 8.95874023 2.11352539 C7.30874023 2.11352539 5.65874023 2.11352539 3.95874023 2.11352539 C3.62874023 4.42352539 3.29874023 6.73352539 2.95874023 9.11352539 C3.61874023 9.11352539 4.27874023 9.11352539 4.95874023 9.11352539 C5.28874023 10.43352539 5.61874023 11.75352539 5.95874023 13.11352539 C-0.19360352 13.21118164 -0.19360352 13.21118164 -2.04125977 13.11352539 C-3.04125977 12.11352539 -3.04125977 12.11352539 -3.17407227 9.64477539 C-3.17149414 8.64446289 -3.16891602 7.64415039 -3.16625977 6.61352539 C-3.16883789 5.61321289 -3.17141602 4.61290039 -3.17407227 3.58227539 C-2.9903018 0.1663067 -2.9903018 0.1663067 0 0 Z " fill="#118344" transform="translate(227.041259765625,278.886474609375)"/>
<path d="M0 0 C3.93736123 -0.08696177 7.87447628 -0.14037835 11.8125 -0.1875 C13.49182617 -0.22520508 13.49182617 -0.22520508 15.20507812 -0.26367188 C16.27822266 -0.27333984 17.35136719 -0.28300781 18.45703125 -0.29296875 C19.9416687 -0.31653442 19.9416687 -0.31653442 21.45629883 -0.34057617 C24 0 24 0 25.8269043 1.3347168 C28.75432529 5.49037519 26.76286312 11.78348615 26 16.4375 C25.67221783 18.29265605 25.3407482 20.14718166 25 22 C24.67 22 24.34 22 24 22 C23.90958676 17.09759294 23.87403893 12.30085958 24.5625 7.4375 C24.706875 6.303125 24.85125 5.16875 25 4 C23.38219843 2.38219843 21.54364482 2.77727853 19.30859375 2.68359375 C18.36435547 2.64169922 17.42011719 2.59980469 16.44726562 2.55664062 C15.45404297 2.51732422 14.46082031 2.47800781 13.4375 2.4375 C12.44041016 2.39431641 11.44332031 2.35113281 10.41601562 2.30664062 C7.9441585 2.20019702 5.4721969 2.09818072 3 2 C2.9498877 2.55872803 2.89977539 3.11745605 2.84814453 3.69311523 C2.61309799 6.27516273 2.36909441 8.85629274 2.125 11.4375 C2.04636719 12.31599609 1.96773438 13.19449219 1.88671875 14.09960938 C1.80292969 14.97294922 1.71914063 15.84628906 1.6328125 16.74609375 C1.55949707 17.53685303 1.48618164 18.3276123 1.41064453 19.14233398 C0.83693976 23.13473254 -0.12503087 27.0626389 -1 31 C6.26 30.67 13.52 30.34 21 30 C20.67 30.66 20.34 31.32 20 32 C12.74 32 5.48 32 -2 32 C-2.87673087 27.61634567 -3.01367312 25.75597593 -2.2578125 21.5859375 C-2.07863281 20.57789063 -1.89945312 19.56984375 -1.71484375 18.53125 C-1.52019531 17.4896875 -1.32554687 16.448125 -1.125 15.375 C-0.93808594 14.32570313 -0.75117188 13.27640625 -0.55859375 12.1953125 C0.83147321 4.50558036 0.83147321 4.50558036 2 1 C1.34 0.67 0.68 0.34 0 0 Z " fill="#D4ECDE" transform="translate(384,276)"/>
<path d="M0 0 C2.35546875 0.35546875 2.35546875 0.35546875 5 2 C6.28146508 5.34070717 6.76705319 8.78716631 7.3125 12.3125 C7.48072266 13.26318359 7.64894531 14.21386719 7.82226562 15.19335938 C8.56309048 19.52038127 9.08790473 23.60132579 9 28 C6.72829651 25.72829651 6.64996185 25.01293549 6.21875 21.9375 C6.09886719 21.14085937 5.97898438 20.34421875 5.85546875 19.5234375 C5.61848958 17.84114583 5.38151042 16.15885417 5.14453125 14.4765625 C5.02464844 13.67992187 4.90476563 12.88328125 4.78125 12.0625 C4.67876953 11.33160156 4.57628906 10.60070312 4.47070312 9.84765625 C4.10832693 7.76788966 4.10832693 7.76788966 2 6 C1.69819824 6.58378418 1.39639648 7.16756836 1.08544922 7.76904297 C-0.31471856 10.47276001 -1.71983387 13.17387754 -3.125 15.875 C-3.8365625 17.25171875 -3.8365625 17.25171875 -4.5625 18.65625 C-7.82300936 24.9129031 -11.30125858 30.99219881 -15 37 C-16 34 -16 34 -14.85546875 31.65234375 C-14.30503906 30.75644531 -13.75460938 29.86054688 -13.1875 28.9375 C-10.17411899 23.69379754 -8.75132545 18.97174194 -8 13 C-7.01 12.67 -6.02 12.34 -5 12 C-4.04764395 10.00207384 -4.04764395 10.00207384 -3.4375 7.625 C-2.54987314 4.54588761 -1.81775218 2.72662828 0 0 Z " fill="#C0F6D9" transform="translate(243,191)"/>
<path d="M0 0 C6.93 0 13.86 0 21 0 C22 9 22 9 21 11 C18.69 11 16.38 11 14 11 C13.67 11.99 13.34 12.98 13 14 C12.01 13.67 11.02 13.34 10 13 C10.66 13 11.32 13 12 13 C11.67 11.35 11.34 9.7 11 8 C9.35 8 7.7 8 6 8 C5.67 8.99 5.34 9.98 5 11 C5 9.68 5 8.36 5 7 C7.31 7 9.62 7 12 7 C12 7.99 12 8.98 12 10 C14.64 10 17.28 10 20 10 C20 8.02 20 6.04 20 4 C13.07 4 6.14 4 -1 4 C-1 7.96 -1 11.92 -1 16 C-1.99 15.67 -2.98 15.34 -4 15 C-5.36503641 10.49537986 -4.67563646 7.35665479 -3 3 C-2.01 2.67 -1.02 2.34 0 2 C0 1.34 0 0.68 0 0 Z " fill="#D0EADC" transform="translate(226,276)"/>
<path d="M0 0 C-1.2065625 0.4021875 -1.2065625 0.4021875 -2.4375 0.8125 C-3.283125 1.204375 -4.12875 1.59625 -5 2 C-5.33 2.99 -5.66 3.98 -6 5 C-7.65 5 -9.3 5 -11 5 C-11.33 5.99 -11.66 6.98 -12 8 C-13.175625 8.103125 -14.35125 8.20625 -15.5625 8.3125 C-18.57824309 8.67610023 -21.04648055 9.30951683 -23.8125 10.5625 C-27 12 -27 12 -30 12 C-30 12.66 -30 13.32 -30 14 C-26.37 14.66 -22.74 15.32 -19 16 C-19 16.99 -19 17.98 -19 19 C-20.87144695 19.82065069 -22.74734336 20.6311584 -24.625 21.4375 C-26.19121094 22.11619141 -26.19121094 22.11619141 -27.7890625 22.80859375 C-30.88685251 23.95801705 -33.73210054 24.57311223 -37 25 C-35.61082658 22.22165316 -34.04236447 22.00357014 -31.1875 20.875 C-30.31480469 20.52179688 -29.44210938 20.16859375 -28.54296875 19.8046875 C-26 19 -26 19 -22 19 C-22 18.34 -22 17.68 -22 17 C-23.051875 16.87625 -24.10375 16.7525 -25.1875 16.625 C-28.45958771 16.08859218 -31.00536076 15.36119965 -34 14 C-30.38026946 9.99924519 -26.0445535 7.8629102 -21 6.125 C-15.48254416 4.19576714 -10.06864131 2.05161318 -4.65234375 -0.14453125 C-2 -1 -2 -1 0 0 Z " fill="#B5F3D3" transform="translate(284,132)"/>
<path d="M0 0 C0.9583374 0.00523682 1.9166748 0.01047363 2.90405273 0.01586914 C4.45576172 0.02070313 4.45576172 0.02070313 6.03881836 0.02563477 C7.12743164 0.03401367 8.21604492 0.04239258 9.33764648 0.05102539 C10.97636719 0.05779297 10.97636719 0.05779297 12.64819336 0.06469727 C15.35723144 0.07652713 18.06616248 0.09300996 20.77514648 0.11352539 C20.44514648 2.42352539 20.11514648 4.73352539 19.77514648 7.11352539 C19.44514648 7.11352539 19.11514648 7.11352539 18.77514648 7.11352539 C18.77514648 5.46352539 18.77514648 3.81352539 18.77514648 2.11352539 C12.17514648 2.11352539 5.57514648 2.11352539 -1.22485352 2.11352539 C-1.22485352 3.43352539 -1.22485352 4.75352539 -1.22485352 6.11352539 C0.42514648 6.11352539 2.07514648 6.11352539 3.77514648 6.11352539 C3.77514648 11.06352539 3.77514648 16.01352539 3.77514648 21.11352539 C3.11514648 21.11352539 2.45514648 21.11352539 1.77514648 21.11352539 C1.44514648 21.77352539 1.11514648 22.43352539 0.77514648 23.11352539 C-0.46407574 19.39585871 0.20495707 17.67463002 1.21264648 13.92602539 C1.50010742 12.8393457 1.78756836 11.75266602 2.08374023 10.63305664 C2.42598633 9.38588867 2.42598633 9.38588867 2.77514648 8.11352539 C0.60640397 8.61956531 -1.22452978 9.11336352 -3.22485352 10.11352539 C-3.25174568 8.63445647 -3.27119973 7.15525056 -3.28735352 5.67602539 C-3.29895508 4.85231445 -3.31055664 4.02860352 -3.32250977 3.17993164 C-3.1852797 0.27614339 -2.90334423 0.14814606 0 0 Z " fill="#DCF2E2" transform="translate(261.224853515625,275.886474609375)"/>
<path d="M0 0 C-0.58859539 3.74261754 -1.64665531 6.56964507 -3.4765625 9.87890625 C-3.97913574 10.79438232 -4.48170898 11.7098584 -4.99951172 12.65307617 C-5.53592285 13.61318604 -6.07233398 14.5732959 -6.625 15.5625 C-7.17043457 16.55032471 -7.71586914 17.53814941 -8.27783203 18.5559082 C-11.59432518 24.54224235 -14.97665163 30.48316258 -18.46484375 36.37109375 C-21.08335387 40.85520905 -23.54212794 45.42637726 -26 50 C-27 47 -27 47 -25.77734375 44.46875 C-25.17019531 43.4890625 -24.56304687 42.509375 -23.9375 41.5 C-19.49781474 34.17407801 -15.33024665 26.75753957 -11.5625 19.0625 C-8.67475855 13.20208352 -5.34411783 7.60886622 -2 2 C-2.9075 2.515625 -3.815 3.03125 -4.75 3.5625 C-8 5 -8 5 -10.375 4.6875 C-10.91125 4.460625 -11.4475 4.23375 -12 4 C-10.56570999 3.32645501 -9.12742943 2.66140299 -7.6875 2 C-6.88699219 1.62875 -6.08648437 1.2575 -5.26171875 0.875 C-3 0 -3 0 0 0 Z " fill="#D2F9E3" transform="translate(375,94)"/>
<path d="M0 0 C0.66 0.33 1.32 0.66 2 1 C1.69255859 1.80050781 1.69255859 1.80050781 1.37890625 2.6171875 C-0.12538498 6.77738046 -1.17418392 10.57722 -1.5 15 C-1.86802623 19.99576036 -3.21093677 24.34168442 -5 29 C-2.36 29 0.28 29 3 29 C3.33 26.36 3.66 23.72 4 21 C6.31 21 8.62 21 11 21 C10.67 23.64 10.34 26.28 10 29 C12.97 29 15.94 29 19 29 C19 29.33 19 29.66 19 30 C14.05 30.495 14.05 30.495 9 31 C9 28.03 9 25.06 9 22 C7.68 22 6.36 22 5 22 C5.020625 22.94875 5.04125 23.8975 5.0625 24.875 C5 28 5 28 4 30 C0.7 30 -2.6 30 -6 30 C-6.25460915 23.86391954 -5.29528626 18.20077939 -4.125 12.1875 C-3.95097656 11.23423828 -3.77695313 10.28097656 -3.59765625 9.29882812 C-3.42363281 8.38939453 -3.24960938 7.47996094 -3.0703125 6.54296875 C-2.91320801 5.71821045 -2.75610352 4.89345215 -2.59423828 4.04370117 C-2 2 -2 2 0 0 Z " fill="#BDE4CF" transform="translate(188,278)"/>
<path d="M0 0 C2.31 0 4.62 0 7 0 C7 0.33 7 0.66 7 1 C10.3 1 13.6 1 17 1 C16.01 1.495 16.01 1.495 15 2 C15 4.31 15 6.62 15 9 C14.67 9 14.34 9 14 9 C14 7.35 14 5.7 14 4 C11.03 4 8.06 4 5 4 C4.67 7.63 4.34 11.26 4 15 C3.34 14.67 2.68 14.34 2 14 C2 13.01 2 12.02 2 11 C1.01 11 0.02 11 -1 11 C-1.125 3.375 -1.125 3.375 0 0 Z " fill="#1D864D" transform="translate(314,279)"/>
<path d="M0 0 C7.26 0 14.52 0 22 0 C24.29775091 4.59550182 23.99860021 6.0601381 23.1875 11 C22.89939453 12.8253125 22.89939453 12.8253125 22.60546875 14.6875 C22.15276954 17.16420278 21.66124686 19.57340603 21 22 C20.34 22 19.68 22 19 22 C19.14046255 19.04132082 19.28712224 16.08317736 19.4375 13.125 C19.47681641 12.28324219 19.51613281 11.44148438 19.55664062 10.57421875 C19.59853516 9.76855469 19.64042969 8.96289062 19.68359375 8.1328125 C19.72025146 7.38918457 19.75690918 6.64555664 19.79467773 5.87939453 C20 4 20 4 21 2 C13.74 2 6.48 2 -1 2 C-0.67 1.34 -0.34 0.68 0 0 Z " fill="#A4CFB8" transform="translate(314,276)"/>
<path d="M0 0 C-1.98 10.23 -3.96 20.46 -6 31 C-6.33 31 -6.66 31 -7 31 C-7.125 24.375 -7.125 24.375 -6 21 C-5.77281504 18.43365139 -5.58391816 15.88321893 -5.4375 13.3125 C-5.37272461 12.2596582 -5.37272461 12.2596582 -5.30664062 11.18554688 C-5.2008264 9.45724794 -5.09993419 7.7286489 -5 6 C-4.34 6 -3.68 6 -3 6 C-3 5.01 -3 4.02 -3 3 C-5.31 3 -7.62 3 -10 3 C-10.66 5.97 -11.32 8.94 -12 12 C-12.33 12 -12.66 12 -13 12 C-12.9129995 10.37399059 -12.8048219 8.74910322 -12.6875 7.125 C-12.62949219 6.22007812 -12.57148438 5.31515625 -12.51171875 4.3828125 C-11.15992468 -1.9118011 -5.56345977 0 0 0 Z " fill="#ADD4BE" transform="translate(377,276)"/>
<path d="M0 0 C2.64 0 5.28 0 8 0 C8 1.32 8 2.64 8 4 C9.98 4 11.96 4 14 4 C14 4.66 14 5.32 14 6 C16.97 6.495 16.97 6.495 20 7 C20 7.33 20 7.66 20 8 C16.85418577 8.02888514 13.70840531 8.04675923 10.5625 8.0625 C9.21575195 8.07506836 9.21575195 8.07506836 7.84179688 8.08789062 C6.56079102 8.09272461 6.56079102 8.09272461 5.25390625 8.09765625 C4.46314697 8.10289307 3.6723877 8.10812988 2.85766602 8.11352539 C1 8 1 8 0 7 C-0.04092937 4.66702567 -0.04241723 2.33294775 0 0 Z " fill="#33875B" transform="translate(220,299)"/>
<path d="M0 0 C0.86931152 0.01047363 1.73862305 0.02094727 2.63427734 0.03173828 C3.57529297 0.03818359 4.51630859 0.04462891 5.48583984 0.05126953 C6.47068359 0.06802734 7.45552734 0.08478516 8.47021484 0.10205078 C9.46279297 0.11107422 10.45537109 0.12009766 11.47802734 0.12939453 C13.93399618 0.15300962 16.38948653 0.18594279 18.84521484 0.22705078 C18.39340204 3.70709591 17.93255445 7.18588982 17.47021484 10.66455078 C17.28072266 12.12538086 17.28072266 12.12538086 17.08740234 13.61572266 C16.28996675 19.5765537 15.23692339 25.37582398 13.84521484 31.22705078 C13.51521484 31.22705078 13.18521484 31.22705078 12.84521484 31.22705078 C12.79140907 28.43512874 12.75163816 25.64423668 12.72021484 22.85205078 C12.70345703 22.05798828 12.68669922 21.26392578 12.66943359 20.44580078 C12.65186012 18.37213063 12.74186317 16.29821837 12.84521484 14.22705078 C13.50521484 13.56705078 14.16521484 12.90705078 14.84521484 12.22705078 C15.50521484 8.92705078 16.16521484 5.62705078 16.84521484 2.22705078 C9.91521484 2.22705078 2.98521484 2.22705078 -4.15478516 2.22705078 C-2.15478516 0.22705078 -2.15478516 0.22705078 0 0 Z " fill="#C6E5D5" transform="translate(194.15478515625,275.77294921875)"/>
<path d="M0 0 C0.33 0 0.66 0 1 0 C1.24913692 2.74951111 1.47491836 5.4976272 1.6875 8.25 C1.76033203 9.02730469 1.83316406 9.80460937 1.90820312 10.60546875 C2.3329823 16.45242911 2.3329823 16.45242911 0.59375 19.3125 C0.0678125 19.869375 -0.458125 20.42625 -1 21 C-1.73260159 23.31347872 -2.411438 25.645752 -3 28 C-0.36 28 2.28 28 5 28 C5 28.66 5 29.32 5 30 C1.7 30 -1.6 30 -5 30 C-3.87791788 19.83525606 -2.33636384 9.96848573 0 0 Z " fill="#71B38F" transform="translate(292,278)"/>
<path d="M0 0 C2.02408755 0.09002398 4.04544287 0.24641038 6.0625 0.4375 C7.71958984 0.59025391 7.71958984 0.59025391 9.41015625 0.74609375 C10.26480469 0.82988281 11.11945313 0.91367187 12 1 C12 2.32 12 3.64 12 5 C13.32 5.33 14.64 5.66 16 6 C16 5.01 16 4.02 16 3 C15.34 2.67 14.68 2.34 14 2 C14 1.34 14 0.68 14 0 C15.32 0.33 16.64 0.66 18 1 C18.04254356 2.99954746 18.04080783 5.00041636 18 7 C17 8 17 8 13.4375 8.0625 C12.303125 8.041875 11.16875 8.02125 10 8 C10 6.68 10 5.36 10 4 C7.36 4 4.72 4 2 4 C2.33 6.64 2.66 9.28 3 12 C2.01 12 1.02 12 0 12 C-0.19401633 10.18818595 -0.38004375 8.37551468 -0.5625 6.5625 C-0.66691406 5.55316406 -0.77132812 4.54382813 -0.87890625 3.50390625 C-0.91886719 2.67761719 -0.95882812 1.85132813 -1 1 C-0.67 0.67 -0.34 0.34 0 0 Z " fill="#E2F1E9" transform="translate(218,295)"/>
<path d="M0 0 C-2.46044197 3.33917125 -4.30024567 5.2139117 -8 7 C-8.33 7.99 -8.66 8.98 -9 10 C-12.02419525 9.41196203 -15.01758453 8.77321882 -18 8 C-18 7.34 -18 6.68 -18 6 C-15.953125 4.52734375 -15.953125 4.52734375 -13.25 2.9375 C-12.36828125 2.41027344 -11.4865625 1.88304687 -10.578125 1.33984375 C-6.6569784 -0.69796425 -4.24061581 -1.36305508 0 0 Z " fill="#3BDF85" transform="translate(240,163)"/>
<path d="M0 0 C3.3 0 6.6 0 10 0 C9.57434944 3.50180605 9.13489617 7.00096127 8.6875 10.5 C8.56955078 11.48226563 8.45160156 12.46453125 8.33007812 13.4765625 C7.55936168 19.40515057 6.34011093 24.49385665 4 30 C3.67 30 3.34 30 3 30 C2.90311779 24.55306686 2.87137825 19.36095333 4 14 C4.66 14 5.32 14 6 14 C6.66 10.04 7.32 6.08 8 2 C5.36 2 2.72 2 0 2 C0 1.34 0 0.68 0 0 Z " fill="#9ECDB3" transform="translate(167,276)"/>
<path d="M0 0 C2.31 0 4.62 0 7 0 C7 0.66 7 1.32 7 2 C4.03 1.505 4.03 1.505 1 1 C0.95101563 1.90621094 0.90203125 2.81242187 0.8515625 3.74609375 C-0.28635851 22.28635851 -0.28635851 22.28635851 -3 25 C-4.51928038 25.07179964 -6.04167482 25.08392007 -7.5625 25.0625 C-8.38878906 25.05347656 -9.21507812 25.04445313 -10.06640625 25.03515625 C-11.02353516 25.01775391 -11.02353516 25.01775391 -12 25 C-13.15941038 21.52176885 -12.70820884 19.54104422 -12 16 C-11.67 16 -11.34 16 -11 16 C-11 18.31 -11 20.62 -11 23 C-8.69 23 -6.38 23 -4 23 C-4.061875 21.88625 -4.12375 20.7725 -4.1875 19.625 C-4.20308219 15.23861352 -3.1372139 11.53108892 -1.75390625 7.39453125 C-0.98321256 4.94668029 -0.46151683 2.52265994 0 0 Z " fill="#A3D1B9" transform="translate(273,283)"/>
<path d="M0 0 C2.31 0 4.62 0 7 0 C6.88641524 2.95918198 6.75966914 5.91676783 6.625 8.875 C6.57859375 10.13763672 6.57859375 10.13763672 6.53125 11.42578125 C6.47324219 12.63427734 6.47324219 12.63427734 6.4140625 13.8671875 C6.3826416 14.61081543 6.3512207 15.35444336 6.31884766 16.12060547 C6 18 6 18 4 20 C0.375 20.125 0.375 20.125 -3 20 C-2.51358785 13.15182898 -1.64006048 6.66957927 0 0 Z M1 1 C0.86722656 1.80824219 0.73445313 2.61648438 0.59765625 3.44921875 C0.42105469 4.51785156 0.24445313 5.58648437 0.0625 6.6875 C-0.11152344 7.74324219 -0.28554688 8.79898437 -0.46484375 9.88671875 C-0.93167121 12.60249604 -1.44422616 15.30124235 -2 18 C-0.35 18 1.3 18 3 18 C3.33 17.01 3.66 16.02 4 15 C3.34 15 2.68 15 2 15 C2 14.34 2 13.68 2 13 C2.66 13 3.32 13 4 13 C4.96070434 10.11788698 5.10581883 8.30149956 5.0625 5.3125 C5.05347656 4.50425781 5.04445313 3.69601562 5.03515625 2.86328125 C5.02355469 2.24839844 5.01195312 1.63351562 5 1 C3.68 1 2.36 1 1 1 Z " fill="#B6DFCA" transform="translate(394,283)"/>
<path d="M0 0 C1.98 0.66 3.96 1.32 6 2 C7.38316202 6.90393806 6.60920049 10.32466356 5.1796875 15.046875 C4 17 4 17 1.93359375 18.2890625 C-2.08603037 19.26319245 -5.71739081 18.96826146 -9.8125 18.625 C-10.60076172 18.56828125 -11.38902344 18.5115625 -12.20117188 18.453125 C-14.13489961 18.31249026 -16.06758595 18.15766112 -18 18 C-18 17.67 -18 17.34 -18 17 C-11.73 17 -5.46 17 1 17 C1 16.01 1 15.02 1 14 C1.66 14 2.32 14 3 14 C2.88570603 12.22844346 2.75816963 10.45773771 2.625 8.6875 C2.55539063 7.70136719 2.48578125 6.71523438 2.4140625 5.69921875 C2.16134528 2.78471567 2.16134528 2.78471567 0 0 Z " fill="#91C9AB" transform="translate(239,290)"/>
<path d="M0 0 C-1 3 -1 3 -3.546875 4.60546875 C-5.13242188 5.38857422 -5.13242188 5.38857422 -6.75 6.1875 C-7.79671875 6.71730469 -8.8434375 7.24710938 -9.921875 7.79296875 C-12.91220291 8.96557195 -14.83404664 9.26382945 -18 9 C-18 9.66 -18 10.32 -18 11 C-21.63 11.33 -25.26 11.66 -29 12 C-26.12325342 10.08216895 -23.50929449 8.91026693 -20.3125 7.625 C-16.63160677 6.12059624 -13.03381338 4.57347433 -9.5 2.75 C-6.20761601 1.103808 -3.6696623 0 0 0 Z " fill="#B1EFCD" transform="translate(231,174)"/>
<path d="M0 0 C1.4540625 0.0309375 1.4540625 0.0309375 2.9375 0.0625 C3.2675 1.0525 3.5975 2.0425 3.9375 3.0625 C1.6275 3.0625 -0.6825 3.0625 -3.0625 3.0625 C-3.0625 4.3825 -3.0625 5.7025 -3.0625 7.0625 C-1.4125 7.3925 0.2375 7.7225 1.9375 8.0625 C1.2775 10.3725 0.6175 12.6825 -0.0625 15.0625 C-6.8125 14.3125 -6.8125 14.3125 -9.0625 12.0625 C-6.4225 12.0625 -3.7825 12.0625 -1.0625 12.0625 C-1.743125 11.546875 -2.42375 11.03125 -3.125 10.5 C-5.0625 8.0625 -5.0625 8.0625 -4.875 4.375 C-3.82101393 0.07797988 -3.82101393 0.07797988 0 0 Z " fill="#429867" transform="translate(234.0625,279.9375)"/>
<path d="M0 0 C2 3 2 3 3 6 C4.65 6.33 6.3 6.66 8 7 C7.43454163 10.95820859 6.19097652 13.6659053 4 17 C1 15 1 15 0.3125 11.875 C-0.00984779 7.87788744 -0.0703016 4.00719146 0 0 Z " fill="#3EDD87" transform="translate(255,226)"/>
<path d="M0 0 C-3.78307126 2.53147572 -7.12023427 3.68816064 -11.5625 4.625 C-12.67753906 4.86476563 -13.79257812 5.10453125 -14.94140625 5.3515625 C-16.73329794 5.73145269 -18.52691865 6.10361258 -20.32421875 6.45703125 C-22.23021389 6.8728167 -22.23021389 6.8728167 -23.25 9.0625 C-23.4975 9.701875 -23.745 10.34125 -24 11 C-26.31 10.67 -28.62 10.34 -31 10 C-28.1108189 8.07387927 -25.4561653 6.8685648 -22.25 5.5625 C-18.84918041 4.17349055 -15.4682925 2.77172282 -12.125 1.25 C-7.76378578 -0.49448569 -4.51720238 -1.50573413 0 0 Z " fill="#B2F2D0" transform="translate(342,110)"/>
<path d="M0 0 C0.99 0 1.98 0 3 0 C3.33 2.64 3.66 5.28 4 8 C3.34 6.68 2.68 5.36 2 4 C1.43410156 4.9384375 0.86820312 5.876875 0.28515625 6.84375 C-0.45553899 8.06261559 -1.19643474 9.28135935 -1.9375 10.5 C-2.31068359 11.12003906 -2.68386719 11.74007812 -3.06835938 12.37890625 C-4.0181984 13.93629997 -5.00613311 15.4703275 -6 17 C-6.33 17 -6.66 17 -7 17 C-7 14.03 -7 11.06 -7 8 C-6.34 8 -5.68 8 -5 8 C-4.731875 7.4225 -4.46375 6.845 -4.1875 6.25 C-2.9611378 3.92636635 -1.75156566 1.96175354 0 0 Z " fill="#93EDBE" transform="translate(287,189)"/>
<path d="M0 0 C0.33 0.66 0.66 1.32 1 2 C0.01196289 4.24658203 0.01196289 4.24658203 -1.52734375 7.0078125 C-2.34428711 8.48701172 -2.34428711 8.48701172 -3.17773438 9.99609375 C-3.75845703 11.02863281 -4.33917969 12.06117188 -4.9375 13.125 C-5.51435547 14.16527344 -6.09121094 15.20554688 -6.68554688 16.27734375 C-8.11660809 18.85561933 -9.55500894 21.42951339 -11 24 C-12 21 -12 21 -11.11328125 19.09765625 C-10.74589844 18.40542969 -10.37851562 17.71320313 -10 17 C-9.69301197 15.4860505 -9.42258604 13.96426759 -9.1875 12.4375 C-8.32306234 8.2319422 -8.32306234 8.2319422 -5.5625 6.25 C-4.2940625 5.63125 -4.2940625 5.63125 -3 5 C-1.19203897 2.43389334 -1.19203897 2.43389334 0 0 Z " fill="#A0F0C7" transform="translate(347,144)"/>
<path d="M0 0 C0.33 0 0.66 0 1 0 C1.22949357 6.31107308 0.43118322 10.5596755 -1 17 C6.26 16.67 13.52 16.34 21 16 C20.67 16.66 20.34 17.32 20 18 C12.74 18 5.48 18 -2 18 C-2.91516352 13.42418239 -2.92267022 11.18635766 -2.125 6.75 C-1.94195312 5.69296875 -1.75890625 4.6359375 -1.5703125 3.546875 C-1 1 -1 1 0 0 Z " fill="#ABDAC0" transform="translate(384,290)"/>
<path d="M0 0 C0.33 1.32 0.66 2.64 1 4 C-2.63 4 -6.26 4 -10 4 C-10 5.32 -10 6.64 -10 8 C-4.39 8 1.22 8 7 8 C7 8.33 7 8.66 7 9 C0.48755792 9.69508823 -5.5510809 10.31909709 -12 9 C-12 7.02 -12 5.04 -12 3 C-7.58774263 1.52924754 -4.51718381 0.63115642 0 2 C0 1.34 0 0.68 0 0 Z " fill="#C3E7D3" transform="translate(162,299)"/>
<path d="M0 0 C2.97 0 5.94 0 9 0 C9 0.99 9 1.98 9 3 C6.36 3 3.72 3 1 3 C1 4.65 1 6.3 1 8 C-0.65 8.33 -2.3 8.66 -4 9 C-5.125 5.25 -5.125 5.25 -4 3 C-3.01 2.67 -2.02 2.34 -1 2 C-0.67 1.34 -0.34 0.68 0 0 Z " fill="#158249" transform="translate(271,279)"/>
<path d="M0 0 C0.66 0.33 1.32 0.66 2 1 C0.71186658 1.83878455 -0.58063256 2.67086783 -1.875 3.5 C-2.59429687 3.9640625 -3.31359375 4.428125 -4.0546875 4.90625 C-6 6 -6 6 -8 6 C-8 6.66 -8 7.32 -8 8 C-7.21625 8.12375 -6.4325 8.2475 -5.625 8.375 C-3 9 -3 9 -1 11 C-4.63 10.67 -8.26 10.34 -12 10 C-12 9.34 -12 8.68 -12 8 C-12.66 8 -13.32 8 -14 8 C-13.00931784 5.40280623 -12.48310981 4.23742968 -9.94140625 2.98828125 C-9.15636719 2.76527344 -8.37132812 2.54226562 -7.5625 2.3125 C-6.78003906 2.08175781 -5.99757812 1.85101563 -5.19140625 1.61328125 C-4.46824219 1.41089844 -3.74507812 1.20851562 -3 1 C-2.01 0.67 -1.02 0.34 0 0 Z " fill="#9DEAC2" transform="translate(230,163)"/>
<path d="M0 0 C0 1.98 0 3.96 0 6 C-4.54805635 6.17835515 -7.8794254 5.99785435 -12 4 C-8.35616205 0.00912986 -5.26350451 -0.11696677 0 0 Z " fill="#168144" transform="translate(279,146)"/>
<path d="M0 0 C-0.45002349 3.35533544 -0.911526 6.70899819 -1.375 10.0625 C-1.50132812 11.00544922 -1.62765625 11.94839844 -1.7578125 12.91992188 C-2.48116298 18.10996155 -3.40684931 23.00581892 -5 28 C-5.33 28 -5.66 28 -6 28 C-6.125 22.25 -6.125 22.25 -5 20 C-4.71504237 18.55571382 -4.46921253 17.10355998 -4.24609375 15.6484375 C-4.11396484 14.79765625 -3.98183594 13.946875 -3.84570312 13.0703125 C-3.71099609 12.18085938 -3.57628906 11.29140625 -3.4375 10.375 C-3.29892578 9.4778125 -3.16035156 8.580625 -3.01757812 7.65625 C-2.67539234 5.43794216 -2.33632903 3.21920209 -2 1 C-4.64 1 -7.28 1 -10 1 C-10 0.34 -10 -0.32 -10 -1 C-5.78984129 -1.95685425 -3.74287627 -2.13181214 0 0 Z " fill="#B6DEC7" transform="translate(303,277)"/>
<path d="M0 0 C0.87454834 0.00523682 1.74909668 0.01047363 2.65014648 0.01586914 C3.59438477 0.0190918 4.53862305 0.02231445 5.51147461 0.02563477 C6.50469727 0.03401367 7.49791992 0.04239258 8.52124023 0.05102539 C9.51833008 0.05553711 10.51541992 0.06004883 11.54272461 0.06469727 C14.01478872 0.07652532 16.48673541 0.0930069 18.95874023 0.11352539 C18.95874023 0.44352539 18.95874023 0.77352539 18.95874023 1.11352539 C12.35874023 1.44352539 5.75874023 1.77352539 -1.04125977 2.11352539 C-1.04125977 6.07352539 -1.04125977 10.03352539 -1.04125977 14.11352539 C-2.03125977 13.78352539 -3.02125977 13.45352539 -4.04125977 13.11352539 C-5.41007989 8.596419 -4.56508589 5.51568974 -3.04125977 1.11352539 C-2.04125977 0.11352539 -2.04125977 0.11352539 0 0 Z " fill="#7CB799" transform="translate(226.041259765625,277.886474609375)"/>
<path d="M0 0 C0.99 0.33 1.98 0.66 3 1 C3.33 4.3 3.66 7.6 4 11 C4.99 11.33 5.98 11.66 7 12 C7.33 11.01 7.66 10.02 8 9 C9 12 9 12 8.3125 14.125 C6.68798698 16.44573288 5.69303378 16.4624902 3 17 C2.49255577 15.10614563 1.99435426 13.20981334 1.5 11.3125 C1.2215625 10.25675781 0.943125 9.20101562 0.65625 8.11328125 C0.0608285 5.28857328 -0.12786492 2.87163292 0 0 Z " fill="#72E3A7" transform="translate(213,224)"/>
<path d="M0 0 C1.45148641 2.7767566 2.61908683 5.53306419 3.625 8.5 C3.88539063 9.2528125 4.14578125 10.005625 4.4140625 10.78125 C5 13 5 13 5 17 C6.32 16.67 7.64 16.34 9 16 C8.1875 17.9375 8.1875 17.9375 7 20 C6.01 20.33 5.02 20.66 4 21 C3.79503906 20.00097656 3.59007812 19.00195312 3.37890625 17.97265625 C3.10949219 16.68230469 2.84007812 15.39195312 2.5625 14.0625 C2.16224609 12.13083984 2.16224609 12.13083984 1.75390625 10.16015625 C1.32818384 7.15361121 1.32818384 7.15361121 0 6 C-0.04080783 4.00041636 -0.04254356 1.99954746 0 0 Z " fill="#4CDA8E" transform="translate(246,184)"/>
<path d="M0 0 C0.87454834 0.00523682 1.74909668 0.01047363 2.65014648 0.01586914 C3.59438477 0.0190918 4.53862305 0.02231445 5.51147461 0.02563477 C6.50469727 0.03401367 7.49791992 0.04239258 8.52124023 0.05102539 C9.51833008 0.05553711 10.51541992 0.06004883 11.54272461 0.06469727 C14.01478872 0.07652532 16.48673541 0.0930069 18.95874023 0.11352539 C18.95874023 0.44352539 18.95874023 0.77352539 18.95874023 1.11352539 C18.39364746 1.12810791 17.82855469 1.14269043 17.24633789 1.15771484 C14.69144004 1.23208597 12.13786525 1.32877781 9.58374023 1.42602539 C8.69428711 1.44858398 7.80483398 1.47114258 6.88842773 1.49438477 C6.03764648 1.52983398 5.18686523 1.5652832 4.31030273 1.60180664 C3.13201904 1.64108276 3.13201904 1.64108276 1.92993164 1.68115234 C-0.44166132 1.96242136 -0.44166132 1.96242136 -2.04125977 5.11352539 C-2.18563477 5.91790039 -2.33000977 6.72227539 -2.47875977 7.55102539 C-3.1064525 10.41051451 -4.16184407 11.90725479 -6.04125977 14.11352539 C-4.37684711 0.24341991 -4.37684711 0.24341991 0 0 Z " fill="#338C5E" transform="translate(192.041259765625,277.886474609375)"/>
<path d="M0 0 C-0.99 2.97 -1.98 5.94 -3 9 C-4.32 8.67 -5.64 8.34 -7 8 C-7.6875 5.6875 -7.6875 5.6875 -8 3 C-5.90994325 -0.36731366 -3.75103888 -0.30413829 0 0 Z " fill="#158446" transform="translate(395,280)"/>
<path d="M0 0 C0.66 0.99 1.32 1.98 2 3 C-1.625 8.875 -1.625 8.875 -5 10 C-6 9 -6 9 -6.0625 5.9375 C-6.041875 4.968125 -6.02125 3.99875 -6 3 C-5.34 3 -4.68 3 -4 3 C-4 2.34 -4 1.68 -4 1 C-2.68 0.67 -1.36 0.34 0 0 Z " fill="#75EDA9" transform="translate(262,161)"/>
<path d="M0 0 C0.33 0.66 0.66 1.32 1 2 C0.07421875 4.20703125 0.07421875 4.20703125 -1.3125 6.8125 C-2.67163923 9.38668633 -3.93945939 11.83022868 -4.91796875 14.57421875 C-6.16392342 17.36749618 -7.74238634 18.96814771 -10 21 C-8.32697242 12.61892848 -5.29477894 6.68737833 0 0 Z " fill="#31C876" transform="translate(314,142)"/>
<path d="M0 0 C0.66 0 1.32 0 2 0 C2.36666667 5.5 2.36666667 5.5 0.625 7.875 C-1 9 -1 9 -3 9 C-3.33 9.66 -3.66 10.32 -4 11 C-3.67 8.36 -3.34 5.72 -3 3 C-5.31 3 -7.62 3 -10 3 C-10 2.67 -10 2.34 -10 2 C-9.04287109 1.90912109 -9.04287109 1.90912109 -8.06640625 1.81640625 C-6.82697266 1.69072266 -6.82697266 1.69072266 -5.5625 1.5625 C-4.73878906 1.48128906 -3.91507812 1.40007812 -3.06640625 1.31640625 C-1.01337975 1.21069185 -1.01337975 1.21069185 0 0 Z " fill="#32905C" transform="translate(404,280)"/>
<path d="M0 0 C1.98 0 3.96 0 6 0 C6.93423645 3.01031744 7.04449911 3.86650268 6 7 C3.36 7 0.72 7 -2 7 C-2 5.68 -2 4.36 -2 3 C-0.68 3.33 0.64 3.66 2 4 C2.33 3.34 2.66 2.68 3 2 C2.01 1.67 1.02 1.34 0 1 C0 0.67 0 0.34 0 0 Z " fill="#238552" transform="translate(240,279)"/>
<path d="M0 0 C-1.65 1.32 -3.3 2.64 -5 4 C-2.69 4.66 -0.38 5.32 2 6 C2 6.33 2 6.66 2 7 C-3.65394631 7.34615998 -7.03006806 6.43425238 -12 4 C-8.14101327 -0.27244959 -5.61655982 -1.8053228 0 0 Z " fill="#72E3A7" transform="translate(203,189)"/>
<path d="M0 0 C-1.2065625 0.4021875 -1.2065625 0.4021875 -2.4375 0.8125 C-3.283125 1.204375 -4.12875 1.59625 -5 2 C-5.33 2.99 -5.66 3.98 -6 5 C-7.65 5 -9.3 5 -11 5 C-11.33 5.99 -11.66 6.98 -12 8 C-13.98 8 -15.96 8 -18 8 C-17 5 -17 5 -14.63671875 3.6484375 C-13.66347656 3.22820312 -12.69023437 2.80796875 -11.6875 2.375 C-10.72199219 1.94960937 -9.75648438 1.52421875 -8.76171875 1.0859375 C-2.64133017 -1.32066508 -2.64133017 -1.32066508 0 0 Z " fill="#92EABB" transform="translate(284,132)"/>
<path d="M0 0 C0.33 1.32 0.66 2.64 1 4 C2.65 4 4.3 4 6 4 C6 8.95 6 13.9 6 19 C5.34 19 4.68 19 4 19 C3.67 19.66 3.34 20.32 3 21 C1.76077777 17.28233332 2.42981058 15.56110463 3.4375 11.8125 C3.86869141 10.18248047 3.86869141 10.18248047 4.30859375 8.51953125 C4.65083984 7.27236328 4.65083984 7.27236328 5 6 C3.35 5.67 1.7 5.34 0 5 C0 3.35 0 1.7 0 0 Z " fill="#92C7AA" transform="translate(259,278)"/>
<path d="M0 0 C1.35055201 2.70110402 1 5.00789006 1 8 C1.33 8.66 1.66 9.32 2 10 C3.65 9.67 5.3 9.34 7 9 C7.33 10.32 7.66 11.64 8 13 C1.84765625 13.09765625 1.84765625 13.09765625 0 13 C-1 12 -1 12 -1.1328125 9.53125 C-1.13023437 8.5309375 -1.12765625 7.530625 -1.125 6.5 C-1.12757813 5.4996875 -1.13015625 4.499375 -1.1328125 3.46875 C-1 1 -1 1 0 0 Z " fill="#1A844C" transform="translate(225,279)"/>
<path d="M0 0 C0.33 0.66 0.66 1.32 1 2 C0.28735352 3.69580078 0.28735352 3.69580078 -0.87109375 5.6953125 C-1.28037109 6.41074219 -1.68964844 7.12617188 -2.11132812 7.86328125 C-2.54896484 8.60964844 -2.98660156 9.35601562 -3.4375 10.125 C-3.87126953 10.87910156 -4.30503906 11.63320312 -4.75195312 12.41015625 C-5.82748966 14.27757134 -6.91284139 16.13932697 -8 18 C-8.33 18 -8.66 18 -9 18 C-9.125 12.25 -9.125 12.25 -8 10 C-7.34 10 -6.68 10 -6 10 C-6 9.01 -6 8.02 -6 7 C-4.71034824 5.62437146 -3.37310707 4.29233607 -2 3 C-1.34 2.01 -0.68 1.02 0 0 Z " fill="#9DEEC2" transform="translate(313,206)"/>
<path d="M0 0 C0.66 0.66 1.32 1.32 2 2 C1.33333333 3.33333333 0.66666667 4.66666667 0 6 C-0.30164063 6.61875 -0.60328125 7.2375 -0.9140625 7.875 C-2.02968794 10.05809439 -3.22731562 12.15472694 -4.5 14.25 C-4.9228125 14.95640625 -5.345625 15.6628125 -5.78125 16.390625 C-6.38453125 17.18726563 -6.38453125 17.18726563 -7 18 C-7.66 18 -8.32 18 -9 18 C-7.45614871 13.85967154 -5.48971062 10.06446947 -3.375 6.1875 C-3.05015625 5.59001953 -2.7253125 4.99253906 -2.390625 4.37695312 C-1.59620849 2.91662865 -0.79844624 1.45812509 0 0 Z " fill="#37D17E" transform="translate(303,163)"/>
<path d="M0 0 C-0.59834725 4.14298667 -2.00664285 7.18194377 -4.0625 10.8125 C-4.61035156 11.78832031 -5.15820312 12.76414062 -5.72265625 13.76953125 C-6.14417969 14.50558594 -6.56570313 15.24164063 -7 16 C-8 13 -8 13 -7.29296875 11.0625 C-6.92816406 10.381875 -6.56335938 9.70125 -6.1875 9 C-5.83042969 8.319375 -5.47335937 7.63875 -5.10546875 6.9375 C-4.14192431 5.24874367 -3.07850549 3.61775824 -2 2 C-3.36125 2.7734375 -3.36125 2.7734375 -4.75 3.5625 C-8.16419665 5.07262544 -8.68604014 5.08784335 -12 4 C-10.56570999 3.32645501 -9.12742943 2.66140299 -7.6875 2 C-6.88699219 1.62875 -6.08648437 1.2575 -5.26171875 0.875 C-3 0 -3 0 0 0 Z " fill="#DCF9EA" transform="translate(375,94)"/>
<path d="M0 0 C0.33 0.66 0.66 1.32 1 2 C-0.04483093 4.16554343 -1.18662756 6.28477969 -2.375 8.375 C-5.33437734 13.43855713 -5.33437734 13.43855713 -7 19 C-8.32 18.67 -9.64 18.34 -11 18 C-11 16.35 -11 14.7 -11 13 C-10.01 13.33 -9.02 13.66 -8 14 C-5.36 9.38 -2.72 4.76 0 0 Z " fill="#BFF4D7" transform="translate(267,228)"/>
<path d="M0 0 C1.49609375 1.359375 1.49609375 1.359375 3 3 C3.04627845 4.66602403 3.03786901 6.33376361 3 8 C3.350625 9.19625 3.70125 10.3925 4.0625 11.625 C5 15 5 15 4 18 C0.67402719 14.46894039 0.53229836 11.49764465 0.3125 6.75 C0.24675781 5.48671875 0.18101562 4.2234375 0.11328125 2.921875 C0.07589844 1.95765625 0.03851563 0.9934375 0 0 Z " fill="#51DD91" transform="translate(251,207)"/>
<path d="M0 0 C0.66 1.32 1.32 2.64 2 4 C1.01 5.485 1.01 5.485 0 7 C0.35515029 9.84120234 1.09349251 12.28047752 2 15 C1.34 15.66 0.68 16.32 0 17 C-0.66 16.67 -1.32 16.34 -2 16 C-2.6328125 13.71484375 -2.6328125 13.71484375 -3.125 10.9375 C-3.29257812 10.01839844 -3.46015625 9.09929687 -3.6328125 8.15234375 C-3.75398438 7.44207031 -3.87515625 6.73179687 -4 6 C-3.34 5.67 -2.68 5.34 -2 5 C-1.27840576 3.35636866 -0.60648579 1.68949614 0 0 Z " fill="#4CDE93" transform="translate(293,181)"/>
<path d="M0 0 C0.33 0.66 0.66 1.32 1 2 C0.04060332 3.69036558 -0.96642853 5.35394174 -2 7 C-2.69822617 8.65369357 -3.37498605 10.31727014 -4 12 C-4.66 12 -5.32 12 -6 12 C-6.33 9.03 -6.66 6.06 -7 3 C-4.525 3.495 -4.525 3.495 -2 4 C-1.34 2.68 -0.68 1.36 0 0 Z " fill="#117B40" transform="translate(295,175)"/>
<path d="M0 0 C0.33 0.66 0.66 1.32 1 2 C-0.19416099 4.59766871 -1.44024102 7.06178439 -2.8125 9.5625 C-3.18181641 10.26052734 -3.55113281 10.95855469 -3.93164062 11.67773438 C-6.73557932 16.86778966 -6.73557932 16.86778966 -9 18 C-8.48686537 12.86865375 -6.94265013 8.25162208 -4 4 C-3.01 3.67 -2.02 3.34 -1 3 C-0.67 2.01 -0.34 1.02 0 0 Z " fill="#77E4AB" transform="translate(352,132)"/>
<path d="M0 0 C1.32 0.33 2.64 0.66 4 1 C4.04254356 2.99954746 4.04080783 5.00041636 4 7 C3 8 3 8 -0.5625 8.0625 C-1.696875 8.041875 -2.83125 8.02125 -4 8 C-4 6.68 -4 5.36 -4 4 C-6.64 4 -9.28 4 -12 4 C-12 3.67 -12 3.34 -12 3 C-9.03 3 -6.06 3 -3 3 C-2.67 3.66 -2.34 4.32 -2 5 C0.02463255 5.65213292 0.02463255 5.65213292 2 6 C2 5.01 2 4.02 2 3 C1.34 2.67 0.68 2.34 0 2 C0 1.34 0 0.68 0 0 Z " fill="#AFDCC6" transform="translate(232,295)"/>
<path d="M0 0 C0.70703125 1.61328125 0.70703125 1.61328125 1 4 C-0.36328125 6.98046875 -0.36328125 6.98046875 -2.3125 10.1875 C-2.94800781 11.25355469 -3.58351563 12.31960937 -4.23828125 13.41796875 C-6 16 -6 16 -8 17 C-8 15.68 -8 14.36 -8 13 C-7.34 13 -6.68 13 -6 13 C-6 11.02 -6 9.04 -6 7 C-5.01 6.67 -4.02 6.34 -3 6 C-1.29144978 2.99992729 -1.29144978 2.99992729 0 0 Z " fill="#45DB8D" transform="translate(322,185)"/>
<path d="M0 0 C2.97 0.495 2.97 0.495 6 1 C7.3271261 4.9813783 7.06915913 8.85045227 7 13 C4.56009196 10.825892 3.42419208 9.02166354 2.375 5.9375 C1.66022446 3.87387384 0.97757872 1.95515745 0 0 Z " fill="#9BFAC4" transform="translate(238,177)"/>
<path d="M0 0 C0.33 0 0.66 0 1 0 C1.24794402 6.5705166 0.32388229 12.56971459 -1 19 C1.64 19 4.28 19 7 19 C7 19.33 7 19.66 7 20 C3.37 20 -0.26 20 -4 20 C-3.67 18.68 -3.34 17.36 -3 16 C-2.46743069 13.25161125 -1.94575511 10.50284585 -1.4375 7.75 C-1.29892578 7.00492187 -1.16035156 6.25984375 -1.01757812 5.4921875 C-0.67728812 3.66166198 -0.33849587 1.83085814 0 0 Z " fill="#CEEDDA" transform="translate(363,288)"/>
<path d="M0 0 C0.66 0.33 1.32 0.66 2 1 C0.55099852 3.81740393 -0.91073706 6.62800163 -2.375 9.4375 C-2.7875 10.23994141 -3.2 11.04238281 -3.625 11.86914062 C-4.02460938 12.63291016 -4.42421875 13.39667969 -4.8359375 14.18359375 C-5.20251465 14.89056396 -5.5690918 15.59753418 -5.94677734 16.32592773 C-7 18 -7 18 -9 19 C-9.1875 16.625 -9.1875 16.625 -9 14 C-8.01 13.34 -7.02 12.68 -6 12 C-4.77155177 9.5939111 -4.77155177 9.5939111 -3.8125 6.875 C-3.46832031 5.96492188 -3.12414062 5.05484375 -2.76953125 4.1171875 C-2.51558594 3.41851562 -2.26164062 2.71984375 -2 2 C-1.34 2 -0.68 2 0 2 C0 1.34 0 0.68 0 0 Z " fill="#92E9BC" transform="translate(365,107)"/>
<path d="M0 0 C0.99 0 1.98 0 3 0 C3.125 5.75 3.125 5.75 2 8 C-0.31 8 -2.62 8 -5 8 C-4.34 7.67 -3.68 7.34 -3 7 C-2.29618843 5.01276732 -1.6288189 3.01222047 -1 1 C-0.67 0.67 -0.34 0.34 0 0 Z " fill="#128447" transform="translate(167,297)"/>
<path d="M0 0 C1.28222189 3.03070628 0.98589446 4.03596914 -0.25 7.1875 C-2 10 -2 10 -5 11 C-5.66 10.67 -6.32 10.34 -7 10 C-5.33248852 6.05860922 -2.77289351 3.2107188 0 0 Z " fill="#41DE8A" transform="translate(329,172)"/>
<path d="M0 0 C1.98 0 3.96 0 6 0 C6.33 1.65 6.66 3.3 7 5 C4.69 5 2.38 5 0 5 C0 3.35 0 1.7 0 0 Z " fill="#148348" transform="translate(221,300)"/>
<path d="M0 0 C0.66 0.33 1.32 0.66 2 1 C0.515 2.485 0.515 2.485 -1 4 C1.97 4.99 4.94 5.98 8 7 C3.59662012 8.10084497 2.73201586 7.7915332 -1.25 6.0625 C-2.14203125 5.68222656 -3.0340625 5.30195313 -3.953125 4.91015625 C-4.62859375 4.60980469 -5.3040625 4.30945313 -6 4 C-3.94766315 1.7522025 -2.99332739 0.9977758 0 0 Z " fill="#C5F1DB" transform="translate(193,189)"/>
<path d="M0 0 C0.99 0.66 1.98 1.32 3 2 C1.23570801 6.97209562 -1.3939166 11.43438061 -4 16 C-4.33 15.34 -4.66 14.68 -5 14 C-4.54625 13.113125 -4.0925 12.22625 -3.625 11.3125 C-1.89634045 7.78869399 -1.45522247 4.86939103 -1 1 C-0.67 0.67 -0.34 0.34 0 0 Z " fill="#9FF0C5" transform="translate(332,166)"/>
<path d="M0 0 C-1 3 -1 3 -2.765625 4.1484375 C-5.15331901 5.05843277 -7.20909095 5.40080214 -9.75 5.625 C-10.54921875 5.69976562 -11.3484375 5.77453125 -12.171875 5.8515625 C-13.07679688 5.92503906 -13.07679688 5.92503906 -14 6 C-12.53706784 3.07413567 -10.59729902 2.94053412 -7.5625 1.875 C-6.57378906 1.52179688 -5.58507812 1.16859375 -4.56640625 0.8046875 C-2 0 -2 0 0 0 Z " fill="#C8F6DE" transform="translate(231,174)"/>
<path d="M0 0 C-1.86691174 1.01501998 -3.74395344 2.01142079 -5.625 3 C-6.66914063 3.556875 -7.71328125 4.11375 -8.7890625 4.6875 C-12.14146595 6.0578255 -14.41954936 6.2580505 -18 6 C-15.23505248 4.15670166 -12.56049496 2.73217468 -9.5625 1.3125 C-8.61503906 0.85488281 -7.66757812 0.39726563 -6.69140625 -0.07421875 C-3.86646543 -1.04593279 -2.73374433 -1.06635417 0 0 Z " fill="#A6F0C8" transform="translate(302,125)"/>
<path d="M0 0 C1.32 0.66 2.64 1.32 4 2 C3.34 3.65 2.68 5.3 2 7 C-4.75 6.25 -4.75 6.25 -7 4 C-4.36 4 -1.72 4 1 4 C0.67 2.68 0.34 1.36 0 0 Z " fill="#56A17A" transform="translate(232,288)"/>
<path d="M0 0 C0.33 0 0.66 0 1 0 C1 2.31 1 4.62 1 7 C3.64 7 6.28 7 9 7 C9 7.66 9 8.32 9 9 C5.7 9 2.4 9 -1 9 C-0.67 6.03 -0.34 3.06 0 0 Z " fill="#A9D4BC" transform="translate(288,299)"/>
<path d="M0 0 C0.33 0 0.66 0 1 0 C1.16918268 1.58306647 1.33523936 3.16646719 1.5 4.75 C1.5928125 5.63171875 1.685625 6.5134375 1.78125 7.421875 C2 10 2 10 2 14 C0.5 15.75 0.5 15.75 -1 17 C-1.18451025 5.47835991 -1.18451025 5.47835991 0 0 Z " fill="#41E38B" transform="translate(252,167)"/>
<path d="M0 0 C0.99 0.33 1.98 0.66 3 1 C1 4 1 4 -1.0625 4.625 C-5.03692712 5.13237368 -9.0141634 5.59186423 -13 6 C-12.67 5.34 -12.34 4.68 -12 4 C-10.0390625 3.4375 -10.0390625 3.4375 -7.625 3 C-4.32474381 2.39799887 -2.88591027 1.92394018 0 0 Z " fill="#45DC8D" transform="translate(296,127)"/>
<path d="M0 0 C-2.48262432 2.48262432 -4.61775287 3.07286975 -7.9375 4.1875 C-8.99839844 4.55230469 -10.05929687 4.91710937 -11.15234375 5.29296875 C-14 6 -14 6 -17 5 C-14.73392948 3.96724659 -12.46318061 2.94866449 -10.1875 1.9375 C-9.22360352 1.49567383 -9.22360352 1.49567383 -8.24023438 1.04492188 C-3.33984375 -1.11328125 -3.33984375 -1.11328125 0 0 Z " fill="#CDF9E0" transform="translate(353,104)"/>
<path d="M0 0 C-3.95523655 2.75668002 -7.22423661 3.5317879 -12 4 C-11.67 3.01 -11.34 2.02 -11 1 C-9.2578125 0.234375 -9.2578125 0.234375 -7.125 -0.25 C-6.07699219 -0.50523438 -6.07699219 -0.50523438 -5.0078125 -0.765625 C-3 -1 -3 -1 0 0 Z " fill="#96E9BE" transform="translate(342,110)"/>
<path d="M0 0 C-0.33 2.31 -0.66 4.62 -1 7 C-1.33 7 -1.66 7 -2 7 C-2 5.02 -2 3.04 -2 1 C-4.64 1 -7.28 1 -10 1 C-10 0.34 -10 -0.32 -10 -1 C-5.92224809 -1.9267618 -3.57818963 -2.33958553 0 0 Z " fill="#DFF3E5" transform="translate(303,277)"/>
<path d="M0 0 C2.0625 0.4375 2.0625 0.4375 4 1 C4 2.65 4 4.3 4 6 C2.35 6 0.7 6 -1 6 C-1.042721 4.33388095 -1.04063832 2.66617115 -1 1 C-0.67 0.67 -0.34 0.34 0 0 Z " fill="#0D733B" transform="translate(275,146)"/>
<path d="M0 0 C0.33 0.66 0.66 1.32 1 2 C-0.21484375 4.6015625 -0.21484375 4.6015625 -1.9375 7.625 C-2.78634766 9.12933594 -2.78634766 9.12933594 -3.65234375 10.6640625 C-4.09707031 11.43492187 -4.54179687 12.20578125 -5 13 C-5.33 13 -5.66 13 -6 13 C-6.25 10.25 -6.25 10.25 -6 7 C-4.125 4.8125 -4.125 4.8125 -2 3 C-1.34 2.01 -0.68 1.02 0 0 Z " fill="#D3F8E4" transform="translate(242,199)"/>
<path d="M0 0 C0.99 0 1.98 0 3 0 C3.33 2.64 3.66 5.28 4 8 C3.34 6.68 2.68 5.36 2 4 C0.68 5.32 -0.64 6.64 -2 8 C-1.125 2.25 -1.125 2.25 0 0 Z " fill="#C2F8DB" transform="translate(287,189)"/>
<path d="M0 0 C1.8871875 0.0309375 1.8871875 0.0309375 3.8125 0.0625 C2.8225 1.5475 2.8225 1.5475 1.8125 3.0625 C-0.7890625 3.35546875 -0.7890625 3.35546875 -3.8125 3.25 C-5.31683594 3.20939453 -5.31683594 3.20939453 -6.8515625 3.16796875 C-7.62242187 3.13316406 -8.39328125 3.09835938 -9.1875 3.0625 C-6.30623588 0.18123588 -3.90053134 -0.06394314 0 0 Z " fill="#99EDBF" transform="translate(204.1875,185.9375)"/>
<path d="M0 0 C-2.73704754 2.73704754 -5.26044774 3.16182449 -9 4 C-11.4375 3.625 -11.4375 3.625 -13 3 C-8.38948622 0.05439397 -5.37637186 -1.72811953 0 0 Z " fill="#4AD98F" transform="translate(240,163)"/>
<path d="M0 0 C3.3 0 6.6 0 10 0 C7.38245525 2.61754475 6.61760406 2.98764792 2.875 3.0625 C1.92625 3.041875 0.9775 3.02125 0 3 C0 2.01 0 1.02 0 0 Z " fill="#1A7E47" transform="translate(260,279)"/>
<path d="M0 0 C0.66 0.33 1.32 0.66 2 1 C1.50769231 7.52307692 1.50769231 7.52307692 -1.0625 9.9375 C-1.701875 10.288125 -2.34125 10.63875 -3 11 C-2.25 3.375 -2.25 3.375 0 0 Z " fill="#B1F0D0" transform="translate(243,191)"/>
<path d="M0 0 C-1.74294678 0.86846831 -3.49468663 1.71930627 -5.25 2.5625 C-6.22453125 3.03816406 -7.1990625 3.51382813 -8.203125 4.00390625 C-11.09856297 5.03510273 -12.19966161 5.11346788 -15 4 C-13.29463574 3.26435267 -11.58867329 2.53004321 -9.87890625 1.8046875 C-8.32708898 1.14008384 -6.78683097 0.44855953 -5.25 -0.25 C-3 -1 -3 -1 0 0 Z " fill="#37CF7B" transform="translate(317,130)"/>
<path d="M0 0 C-2.65398078 1.76932052 -4.0348374 2.30812873 -7 3 C-7.33 3.33 -7.66 3.66 -8 4 C-9.99958364 4.04080783 -12.00045254 4.04254356 -14 4 C-10.54865513 0.8362672 -4.51151675 -2.25575838 0 0 Z " fill="#6AE1A3" transform="translate(334,114)"/>
<path d="M0 0 C0.99 0.495 0.99 0.495 2 1 C2.625 4.0625 2.625 4.0625 3 7 C3.66 6.34 4.32 5.68 5 5 C5.33 5.99 5.66 6.98 6 8 C5.01 8.99 4.02 9.98 3 11 C0.60236815 8.60236815 0.65719414 7.66726502 0.375 4.375 C0.30023438 3.55773437 0.22546875 2.74046875 0.1484375 1.8984375 C0.09945312 1.27195313 0.05046875 0.64546875 0 0 Z " fill="#5ADA97" transform="translate(255,232)"/>
<path d="M0 0 C0.99 0.33 1.98 0.66 3 1 C1.68 3.64 0.36 6.28 -1 9 C-1.66 8.01 -2.32 7.02 -3 6 C-2 4 -1 2 0 0 Z " fill="#5BE099" transform="translate(335,160)"/>
<path d="M0 0 C-3.74525799 3.74525799 -7.98270909 3.68909949 -13 4 C-10.56272708 2.37515139 -8.62713877 1.34310925 -5.9375 0.3125 C-5.24527344 0.04050781 -4.55304688 -0.23148438 -3.83984375 -0.51171875 C-2 -1 -2 -1 0 0 Z " fill="#26AC62" transform="translate(300,137)"/>
<path d="M0 0 C2.64 0.66 5.28 1.32 8 2 C8 2.33 8 2.66 8 3 C5.69 3 3.38 3 1 3 C1 4.65 1 6.3 1 8 C0.67 8 0.34 8 0 8 C0 5.36 0 2.72 0 0 Z " fill="#409365" transform="translate(194,280)"/>
<path d="M0 0 C3.37462715 0.54723683 5.08235 1.0549 8 3 C4.91441876 4.02852708 3.22643349 4 0 4 C0 2.68 0 1.36 0 0 Z " fill="#258551" transform="translate(235,290)"/>
<path d="M0 0 C0.33 1.32 0.66 2.64 1 4 C2.32 3.67 3.64 3.34 5 3 C4.1875 4.9375 4.1875 4.9375 3 7 C2.01 7.33 1.02 7.66 0 8 C0 5.36 0 2.72 0 0 Z " fill="#3DDD87" transform="translate(250,197)"/>
<path d="M0 0 C1.1875 1.625 1.1875 1.625 2 4 C0.625 7.25 0.625 7.25 -1 10 C-1.99 8.68 -2.98 7.36 -4 6 C-3.34 5.67 -2.68 5.34 -2 5 C-1.27840576 3.35636866 -0.60648579 1.68949614 0 0 Z " fill="#3BCF7E" transform="translate(293,181)"/>
<path d="M0 0 C2 2 2 2 2.375 4.375 C1.89262388 7.75163282 0.55541504 8.84386856 -2 11 C-1.34 7.37 -0.68 3.74 0 0 Z " fill="#44DD8C" transform="translate(266,221)"/>
<path d="M0 0 C0.99 0 1.98 0 3 0 C3.33 2.97 3.66 5.94 4 9 C1.18167487 7.59083743 0.97406539 5.92219617 0 3 C0 2.01 0 1.02 0 0 Z " fill="#ADF3CA" transform="translate(240,179)"/>
<path d="M0 0 C0.6875 1.625 0.6875 1.625 1 4 C-0.4375 7.25 -0.4375 7.25 -2 10 C-2.66 10 -3.32 10 -4 10 C-3.29445932 6.33118845 -1.72264494 3.29549466 0 0 Z " fill="#14904A" transform="translate(300,164)"/>
<path d="M0 0 C2.97 0.495 2.97 0.495 6 1 C6 2.65 6 4.3 6 6 C3.96166576 4.7260411 1.96147874 3.38938077 0 2 C0 1.34 0 0.68 0 0 Z " fill="#85E5B1" transform="translate(277,153)"/>
<path d="M0 0 C-1 2 -1 2 -4.0625 3.125 C-5.5165625 3.558125 -5.5165625 3.558125 -7 4 C-7.66 3.34 -8.32 2.68 -9 2 C-5.86501708 0.14223235 -3.62528568 -0.20140476 0 0 Z " fill="#95EBBD" transform="translate(361,102)"/>
<path d="M0 0 C5.95703125 -0.29296875 5.95703125 -0.29296875 8 0 C8.99 0.99 9.98 1.98 11 3 C7.37 2.67 3.74 2.34 0 2 C0 1.34 0 0.68 0 0 Z " fill="#AEF3CC" transform="translate(218,171)"/>
<path d="M0 0 C-2.55068845 2.35448165 -3.71017358 2.98327924 -7.25 3.1875 C-8.1575 3.125625 -9.065 3.06375 -10 3 C-9 1 -9 1 -5.5625 -0.1875 C-2 -1 -2 -1 0 0 Z " fill="#B3F2D0" transform="translate(267,139)"/>
<path d="M0 0 C0.33 0 0.66 0 1 0 C1.36923077 5.41538462 1.36923077 5.41538462 -0.5 8.375 C-0.995 8.91125 -1.49 9.4475 -2 10 C-2 7.69 -2 5.38 -2 3 C-1.34 3 -0.68 3 0 3 C0 2.01 0 1.02 0 0 Z " fill="#108445" transform="translate(313,294)"/>
<path d="M0 0 C0.33 0 0.66 0 1 0 C1.6875 2.75 1.6875 2.75 2 6 C0.5625 8.375 0.5625 8.375 -1 10 C-1.125 2.25 -1.125 2.25 0 0 Z " fill="#389060" transform="translate(365,286)"/>
<path d="M0 0 C0 0.66 0 1.32 0 2 C-0.66 2 -1.32 2 -2 2 C-2 2.66 -2 3.32 -2 4 C-3.65 4 -5.3 4 -7 4 C-6.67 3.01 -6.34 2.02 -6 1 C-3.90006779 0.25486277 -2.22568901 0 0 0 Z " fill="#3CD980" transform="translate(304,132)"/>
</svg>
